<svg version="1.1" xmlns="http://www.w3.org/2000/svg" xmlns:xlink="http://www.w3.org/1999/xlink" width="368.35376" height="31.52934" viewBox="0,0,368.35376,31.52934"><g transform="translate(4.17688,-304.98607)"><g data-paper-data="{&quot;isPaintingLayer&quot;:true}" fill-rule="nonzero" stroke="none" stroke-width="1" stroke-linecap="butt" stroke-linejoin="miter" stroke-miterlimit="10" stroke-dasharray="" stroke-dashoffset="0" style="mix-blend-mode: normal"><g fill="#290303"><path d="M-2.85897,318.32337c18.88994,2.63018 37.99952,3.94527 57.10911,4.16445c1.7572,0 1.7572,3.06854 0,3.06854c-16.69343,0 -33.16721,0 -49.86064,0c0.21965,-1.09591 0.21965,-1.97263 0.4393,-3.06854c14.93623,2.84936 29.87246,4.16445 44.80868,4.16445c1.7572,0 1.7572,3.06854 0,3.06854c-11.42182,0 -23.06329,0.21918 -34.48511,0.21918c0.21965,-1.09591 0.21965,-1.97263 0.4393,-3.06854c12.08077,2.84936 24.60085,3.5069 36.90127,3.94527c1.7572,0 1.7572,3.06854 0,3.06854c-16.25413,0 -32.72791,0.21918 -48.98204,0.21918c-1.7572,0 -1.7572,-3.06854 0,-3.06854c16.25413,0 32.72791,-0.21918 48.98204,-0.21918v3.06854c-12.52007,-0.43836 -25.2598,-1.09591 -37.77987,-4.16445c-1.53755,-0.43836 -1.09825,-3.06854 0.4393,-3.06854c11.42182,0 23.06329,-0.21918 34.48511,-0.21918v3.06854c-15.37553,0 -30.53141,-1.31509 -45.68729,-4.16445c-1.53755,-0.21918 -1.09825,-3.06854 0.4393,-3.06854c16.69343,0 33.16721,0 49.86064,0v3.06854c-19.10959,-0.21918 -38.21917,-1.53427 -57.10911,-4.16445c-1.7572,-0.21918 -1.7572,-3.28772 0,-3.06854z"/><path d="M362.85897,334.5428c-18.88994,-2.63018 -37.99952,-4.16445 -57.10911,-4.16445c-1.7572,0 -1.7572,-3.06854 0,-3.06854c16.69343,0 33.16721,0 49.86064,0c-0.21965,1.09591 -0.21965,1.97263 -0.4393,3.06854c-14.93623,-2.84936 -29.87246,-4.16445 -44.80868,-4.16445c-1.7572,0 -1.7572,-3.06854 0,-3.06854c11.42182,0 23.06329,-0.21918 34.48511,-0.21918c-0.21965,1.09591 -0.21965,1.97263 -0.4393,3.06854c-12.08077,-2.84936 -24.60085,-3.5069 -36.90127,-3.94527c-1.7572,0 -1.7572,-3.06854 0,-3.06854c16.25413,0 32.72791,-0.21918 48.98204,-0.21918c1.7572,0 1.7572,3.06854 0,3.06854c-16.25413,0 -32.72791,0.21918 -48.98204,0.21918v-3.06854c12.52007,0.43836 25.2598,1.09591 37.77987,4.16445c1.53755,0.43836 1.09825,3.06854 -0.4393,3.06854c-11.42182,0 -23.06329,0.21918 -34.48511,0.21918v-3.06854c15.37553,0 30.53141,1.31509 45.68729,4.16445c1.53755,0.21918 1.09825,3.06854 -0.4393,3.06854c-16.69343,0 -33.16721,0 -49.86064,0v-3.06854c19.10959,0.21918 38.21917,1.53427 57.10911,4.16445c1.7572,0.21918 1.7572,3.28772 0,3.06854z"/><path d="M106.30729,309.77529c1.97685,-1.75345 3.07511,-2.63018 3.73406,-2.63018v0.21918c-0.65895,0.65754 -1.09825,1.09591 -1.09825,1.09591h0.21965c1.09825,-0.43836 2.1965,-0.65754 3.29476,-0.65754v0c1.7572,0 2.85546,0.87673 3.73406,2.411l0.21965,0.87673c0,0.87673 -0.4393,1.75345 -1.09825,2.84936l-0.21965,0.21918v0c0.4393,-0.87673 0.65895,-1.53427 0.65895,-2.19181v-0.21918v0c-0.21965,0.65754 -0.65895,1.09591 -1.09825,1.97263v0c0.21965,-0.87673 0.21965,-1.53427 0.21965,-1.53427c0,-0.43836 -0.4393,-0.65754 -1.3179,-0.87673c-0.21965,0 -0.4393,0 -0.8786,0c-1.7572,0 -3.07511,0.65754 -3.95371,1.75345v0c1.53755,-1.09591 2.6358,-1.53427 3.73406,-1.53427c0.4393,0 0.65895,0.21918 0.65895,0.21918v0.21918c-1.09825,0 -1.97685,0.21918 -2.41615,0.43836c-0.8786,0.43836 -1.7572,1.31509 -2.41615,2.63018c-0.65895,0.87673 -1.09825,1.75345 -1.53755,2.84936v0c3.29476,-0.21918 5.27161,-0.21918 5.71091,-0.21918v0c-1.09825,0.21918 -1.7572,0.21918 -2.1965,0.43836v0v0l2.1965,-0.21918v0c0,0 0,0 -0.21965,0.21918h0.21965v0c-1.09825,0.43836 -3.29476,1.09591 -6.15021,1.75345v0v0l5.93056,-0.43836h0.21965v0.21918l-4.17336,0.87673v0c0.4393,0 1.09825,0 1.97685,0h0.4393c0.4393,0 1.09825,0 1.7572,0h0.21965v0.21918c-2.6358,0.65754 -3.95371,1.09591 -3.95371,1.09591v0h1.09825v0.21918c-0.4393,0.21918 -2.1965,0.65754 -5.27161,1.09591c-0.21965,1.09591 -0.4393,2.19181 -0.4393,3.06854v0.43836c0,1.09591 0.21965,1.97263 0.8786,2.84936c0,0 0.21965,0.21918 0.4393,0.21918c0.8786,-0.21918 2.41615,-1.09591 4.39301,-2.84936l2.1965,-2.19181v0c0,0 -0.21965,0.65754 -0.8786,1.97263v0c1.53755,-1.31509 2.6358,-2.63018 3.51441,-3.72608v0c0,0 0,0.65754 -0.4393,1.97263l0.65895,-0.87673v0c-0.65895,1.75345 -1.97685,4.16445 -3.95371,7.23299c-1.7572,1.75345 -3.73406,2.63018 -6.36986,2.63018c-1.7572,0 -3.51441,-0.65754 -4.83231,-2.19181c-0.65895,-0.87673 -1.09825,-2.19181 -1.09825,-3.72608c0,-1.09591 0,-2.63018 0.21965,-4.16445c-0.4393,0.21918 -0.65895,0.21918 -0.65895,0.21918c-1.53755,7.01381 -2.6358,10.52071 -2.85546,10.52071h-0.21965c-0.21965,0 -0.21965,-0.21918 -0.21965,-0.43836v-0.43836v-0.21918v0v0c0,0.21918 -0.21965,0.65754 -0.65895,1.09591v0c-0.21965,0 -0.21965,-0.21918 -0.4393,-0.65754c-0.4393,0 -0.65895,-0.21918 -0.65895,-0.43836c0,-0.65754 0,-1.31509 0,-1.53427c-0.21965,0 -0.4393,0.43836 -0.8786,1.31509v0v0v-0.21918c0,0 0,-0.65754 0,-1.75345v0v0c-0.21965,0.43836 -0.4393,0.65754 -0.4393,0.65754v0v-0.65754c0,-0.87673 0.21965,-3.06854 0.8786,-6.35626v0c-0.65895,0 -0.8786,0 -0.8786,0c-0.4393,1.09591 -0.8786,1.97263 -0.8786,2.63018c-1.3179,1.97263 -2.6358,3.5069 -4.17336,5.04117c-1.97685,1.75345 -3.07511,2.63018 -3.73406,2.63018v-0.21918c0.65895,-0.65754 1.09825,-1.09591 1.09825,-1.09591v0c-1.09825,0.43836 -1.97685,0.65754 -3.07511,0.65754h-0.21965c-1.7572,0 -3.07511,-0.87673 -3.95371,-2.411c0,-0.43836 0,-0.65754 0,-0.65754c0,-0.65754 0.21965,-1.53427 1.09825,-3.06854v0h0.21965c-0.4393,0.87673 -0.65895,1.75345 -0.65895,2.19181c0,0 0,0.21918 0,0.43836l1.09825,-1.97263h0.21965l-0.21965,1.53427c0,0.43836 0.65895,0.65754 1.7572,0.87673h0.4393c1.7572,0 3.07511,-0.65754 3.95371,-1.75345v0c-1.53755,1.09591 -2.6358,1.53427 -3.73406,1.53427c-0.4393,0 -0.65895,0 -0.65895,-0.21918c0,0 0.65895,-0.21918 1.7572,-0.43836c0.8786,-0.21918 1.97685,-1.09591 2.85546,-2.63018c0.65895,-0.87673 1.09825,-1.75345 1.3179,-2.411v0c-2.41615,0.21918 -4.17336,0.21918 -5.71091,0.21918h-0.21965c0,0 -0.21965,0 -0.21965,-0.21918v0c0,-0.21918 0.4393,-0.43836 1.09825,-0.43836c0,-0.21918 0.21965,-0.21918 0.65895,-0.21918v0c-0.65895,0 -0.8786,-0.21918 -0.8786,-0.21918c0,-0.21918 1.97685,-0.65754 5.71091,-1.09591c0,-0.21918 0.21965,-0.21918 0.4393,-0.21918v0h-0.21965c-3.07511,0.21918 -4.83231,0.21918 -5.05196,0.21918l-0.21965,-0.21918v0c0,-0.21918 1.09825,-0.43836 3.73406,-0.87673v0h-0.65895h-0.65895c-1.09825,0 -1.7572,0 -1.7572,-0.21918v0c0.4393,-0.21918 0.8786,-0.43836 1.53755,-0.43836c0,-0.21918 0,-0.21918 0,-0.21918h-0.8786c-0.21965,0 -0.4393,0 -0.4393,-0.21918v-0.21918c0,-0.21918 0.8786,-0.43836 2.85546,-0.43836c1.53755,-0.21918 2.6358,-0.43836 2.85546,-0.43836c0.4393,-1.75345 0.65895,-2.84936 0.65895,-3.94527v-0.21918c0,-1.53427 -0.4393,-2.411 -1.3179,-3.06854h-0.4393c-1.09825,0 -2.85546,1.31509 -5.49126,3.94527c0,0.21918 -0.4393,0.43836 -1.09825,1.09591v0c0,-0.21918 0.21965,-0.87673 0.8786,-2.19181c-1.97685,1.97263 -3.29476,3.06854 -3.51441,3.72608v0v0l0.4393,-1.75345v0v0c0,0.21918 -0.21965,0.43836 -0.65895,0.87673v0v0c0.65895,-1.75345 1.97685,-4.16445 3.95371,-7.01381c1.7572,-1.97263 3.95371,-2.84936 6.58951,-2.84936c1.7572,0 3.29476,0.65754 4.83231,1.97263c0.8786,1.09591 1.3179,2.411 1.3179,3.94527c0,1.31509 -0.21965,3.06854 -0.4393,5.04117h0.21965c0.21965,0 0.4393,-0.43836 0.4393,-0.87673c1.53755,-5.9179 2.41615,-8.76726 2.6358,-8.76726v0c0,0.65754 -0.21965,1.09591 -0.21965,1.53427v0v0c0.21965,-0.43836 0.4393,-1.31509 0.8786,-2.411v0v1.53427v0l0.65895,-2.19181v0v3.28772v0c0.21965,-1.31509 0.4393,-2.411 0.8786,-3.5069v0l-0.21965,3.06854v0l0.4393,-1.75345h0.21965v0c0,1.31509 -0.4393,4.38363 -0.8786,9.20562v0c0.65895,0 1.09825,0 1.09825,-0.43836c0.65895,-1.53427 1.09825,-2.63018 1.09825,-2.84936c1.09825,-1.75345 2.6358,-3.5069 4.17336,-5.04117zM103.23218,310.43284c0.65895,-0.43836 1.09825,-0.65754 1.53755,-1.09591v0v0l-3.51441,5.04117h-0.21965v0v-0.21918c0,-0.65754 0.8786,-1.97263 2.41615,-3.72608zM118.38806,332.35098c0,0 -0.21965,0.21918 -0.21965,0.43836c0.4393,0 0.65895,-0.21918 0.8786,-0.43836c-0.21965,0 -0.65895,0 -0.65895,0zM117.07016,331.91262c0,0 0,-0.21918 0,-0.43836v0h-0.21965c-0.4393,0.65754 -0.4393,1.31509 -0.65895,2.19181c0.21965,0 0.4393,-0.21918 0.8786,-0.43836c0,-0.87673 0,-1.31509 0,-1.31509zM123.65967,315.69319c0.21965,0 0.21965,0 0.21965,0h0.21965c0,0.21918 -0.21965,0.65754 -0.21965,1.09591c-0.21965,0.43836 -0.21965,0.87673 -0.21965,1.09591c1.53755,-0.43836 2.41615,-0.65754 2.41615,-0.65754c0.4393,0 1.3179,-0.21918 2.41615,-0.43836c0.21965,0 1.09825,-0.21918 2.6358,-0.43836c0,0.21918 -0.21965,0.43836 -0.4393,0.43836c-0.4393,0 -0.65895,0.21918 -0.65895,0.21918c0.21965,-0.21918 0.65895,-0.21918 1.09825,-0.21918c0.4393,-0.21918 0.65895,-0.21918 0.8786,-0.21918c-0.4393,0.21918 -0.65895,0.43836 -1.3179,0.65754c-0.65895,0.21918 -1.09825,0.43836 -1.3179,0.65754c1.09825,-0.21918 1.97685,-0.43836 2.6358,-0.43836c-0.21965,0 -0.4393,0.21918 -0.8786,0.43836c-0.4393,0.21918 -0.65895,0.43836 -0.8786,0.65754c0.65895,0 1.3179,-0.21918 2.1965,-0.21918v0.21918c0,0.21918 -0.8786,0.43836 -2.1965,1.09591c-1.09825,0.43836 -1.7572,0.65754 -2.41615,0.87673c-1.53755,0.43836 -2.85546,0.87673 -3.95371,1.09591c-0.65895,0.21918 -1.09825,0.43836 -1.09825,1.09591c0,0.21918 -0.21965,1.31509 -0.65895,3.28772c0,0.21918 -0.21965,0.43836 -0.21965,0.65754c0,0 0,-0.21918 0,-0.43836c0,-0.21918 0,-0.21918 0,-0.43836c0,0.43836 -0.4393,1.09591 -0.65895,2.19181c0.21965,0 0.4393,0 0.4393,0c1.7572,-0.43836 2.85546,-0.65754 3.29476,-0.87673c0.8786,-0.21918 2.1965,-0.43836 4.39301,-0.87673c1.3179,-0.21918 2.6358,-0.43836 3.95371,-0.65754c0.21965,0 0.65895,0 0.8786,0c-0.21965,0.21918 -0.4393,0.21918 -0.4393,0.21918c-0.4393,0.21918 -1.09825,0.43836 -1.97685,0.65754c-1.09825,0.43836 -1.7572,0.65754 -1.97685,0.65754c-0.21965,0 -0.21965,0.21918 -0.4393,0.21918c0.21965,0 0.65895,0 1.7572,-0.21918c1.09825,-0.21918 1.7572,-0.21918 1.7572,-0.21918c0,0 -0.21965,0.21918 -0.8786,0.43836c0.21965,0 -0.21965,0.21918 -1.09825,0.43836c-0.4393,0.21918 -0.8786,0.21918 -1.09825,0.43836c0.4393,0 1.09825,-0.21918 1.97685,-0.21918c0.8786,-0.21918 1.53755,-0.21918 1.97685,-0.21918c-0.21965,0 -0.65895,0.21918 -1.7572,0.65754c-0.8786,0.21918 -1.3179,0.43836 -1.7572,0.65754c0.21965,0 0.65895,0 1.7572,-0.21918c1.09825,-0.21918 1.7572,-0.21918 1.7572,-0.21918l-0.21965,0.21918c-4.17336,1.53427 -6.58951,2.411 -7.02881,2.63018c-0.65895,0.21918 -2.41615,0.87673 -5.05196,1.53427c-0.8786,0.21918 -1.7572,0.65754 -3.07511,0.87673c-0.65895,0.21918 -1.09825,0.21918 -1.3179,0c0,0 0,0.21918 -0.21965,0.43836v0v-0.65754c0.21965,-2.19181 0.21965,-3.28772 0.21965,-3.28772c0,-1.53427 0.21965,-3.72608 0.8786,-6.57544c0,0 0.21965,-0.87673 0.4393,-2.19181c0,-0.21918 0,-0.21918 -0.21965,-0.43836c-0.21965,-0.21918 -0.21965,-0.21918 0,-0.43836c0.21965,0 0.4393,-0.21918 0.4393,-0.65754c0.4393,-2.19181 0.65895,-3.5069 0.65895,-3.72608c0,-0.43836 0.21965,-1.53427 0.65895,-3.28772c0,-0.43836 0,-0.65754 -0.21965,-0.87673c0.21965,-0.43836 0.4393,-0.65754 0.4393,-0.65754c0.21965,0 0,-0.21918 0,-0.65754c0,0 0.21965,-0.21918 0.21965,-0.65754c0,-0.43836 0.21965,-0.65754 0.21965,-0.87673c0.21965,0.21918 0.21965,0.21918 0.21965,0.21918c0,0.21918 0,0.43836 0,0.87673c0.21965,0 0.4393,0 0.4393,0c0,-0.21918 0.21965,-0.21918 0.21965,-0.43836c0,-0.21918 0,-0.21918 0,-0.43836c0,-0.21918 0,-0.43836 0,-0.43836c0,0 0.21965,0 0.21965,-0.21918c0.21965,0.21918 0.21965,0.43836 0.21965,0.65754c0,0.43836 0,0.65754 0,0.65754c0.21965,-0.21918 0.21965,-0.21918 0.21965,-0.21918c0,-0.21918 0.21965,-0.43836 0.21965,-0.65754c0.21965,-0.21918 0.21965,-0.43836 0.21965,-0.65754c0,-0.21918 0.21965,-0.43836 0.21965,-0.65754h0.21965c0.21965,0.21918 0.21965,0.65754 0.21965,1.75345c0.21965,0 0.4393,0 0.4393,-0.21918c0,-0.21918 0,-0.21918 0,-0.43836c0,-0.21918 0,-0.43836 0,-0.43836c0,0 0,-0.21918 0.21965,-0.43836c0.21965,0.21918 0.21965,0.43836 0.21965,0.65754c0,0.43836 0,0.65754 0,0.65754c1.97685,-0.21918 2.85546,-0.43836 3.07511,-0.43836c1.09825,0 2.1965,-0.21918 3.29476,-0.21918c1.7572,0 2.6358,0 3.07511,0c0,0 0,0 -0.4393,0.21918c0.4393,0 0.8786,0 0.8786,0v0c-0.65895,0 -1.3179,0.43836 -2.41615,0.65754c0.4393,0 0.65895,0 1.3179,0c0.65895,0 1.09825,0 1.3179,0c-0.21965,0.21918 -0.8786,0.43836 -1.7572,0.65754c-0.8786,0.21918 -1.53755,0.43836 -1.97685,0.65754c0,0.21918 0.65895,0 1.97685,0c1.3179,-0.21918 1.97685,-0.21918 1.97685,-0.21918c-0.21965,0 -0.65895,0.21918 -1.7572,0.65754c-0.8786,0.21918 -1.53755,0.43836 -1.7572,0.65754c0,0 0.21965,0 0.4393,0c0.21965,0 0.21965,0 0.4393,0c-0.21965,0.21918 -0.21965,0.21918 -0.21965,0.21918c-0.21965,0 -0.8786,0.43836 -1.97685,0.87673c-1.7572,0.87673 -3.51441,1.53427 -5.27161,1.97263c0,0.21918 -0.4393,0.21918 -1.09825,0.43836v0zM138.1566,314.15892l5.49126,-2.19181c-0.65895,0 -1.7572,0.21918 -2.85546,0.65754c-1.09825,0.43836 -1.97685,0.87673 -2.41615,1.31509zM142.32995,316.56992c0.21965,-0.21918 0.4393,-0.21918 0.4393,-0.21918c0,0 0.4393,0 0.8786,-0.21918c0.65895,-0.21918 1.09825,-0.43836 1.3179,-0.43836v0c-0.65895,0.21918 -1.09825,0.21918 -1.09825,0.21918c0,0 -1.53755,0.21918 -4.61266,1.09591c-0.4393,0.21918 -0.8786,0.21918 -1.53755,0.43836c-0.65895,0.21918 -1.09825,0.43836 -1.53755,0.43836c0,0 -0.21965,0 -0.4393,0h-0.21965c0,0 0,-0.21918 0,-0.43836c-0.4393,0.21918 -0.65895,0.21918 -0.65895,0.21918c-0.21965,0 -0.4393,0 -0.4393,-0.21918c0,-0.21918 0,-0.21918 0.21965,-0.43836c0,0 0.21965,-0.21918 0.65895,-0.43836c-0.4393,0 -0.65895,0 -0.65895,0c-0.21965,0 -0.4393,0 -0.4393,-0.21918c0,-0.21918 0,-0.21918 0,-0.43836l0.21965,-0.21918v-0.21918c-0.21965,-0.21918 -0.21965,-0.43836 -0.21965,-0.65754c0,-0.21918 0.21965,-0.21918 0.4393,-0.43836c0.4393,-0.21918 0.8786,-0.43836 1.3179,-0.65754c3.07511,-1.53427 6.15021,-2.411 9.00567,-3.06854c1.3179,-0.21918 3.51441,-0.65754 6.80916,-1.31509c0.21965,-0.21918 0.65895,-0.21918 1.3179,-0.21918c-0.21965,0.21918 -0.8786,0.43836 -1.53755,0.65754c-0.65895,0.21918 -1.09825,0.43836 -1.53755,0.65754c0.21965,0 0.8786,0 1.97685,-0.21918c1.09825,-0.21918 1.7572,-0.21918 1.97685,-0.21918c-0.21965,0.21918 -0.4393,0.21918 -0.4393,0.21918c-0.4393,0 -0.8786,0.21918 -1.7572,0.65754c-0.65895,0.21918 -1.3179,0.43836 -1.7572,0.65754c-0.21965,0 -0.4393,0 -0.65895,0.21918c0.21965,0 0.8786,0 1.97685,-0.21918c0.8786,-0.21918 1.7572,-0.21918 2.1965,-0.21918c0,0 -0.4393,0.21918 -1.3179,0.65754c-0.8786,0.21918 -1.3179,0.43836 -1.3179,0.43836c0,0 0.65895,0 2.1965,0c0.21965,0 0.8786,0 2.1965,-0.21918v0v0c-0.8786,0.21918 -1.97685,0.65754 -3.51441,1.09591c-1.97685,0.65754 -3.07511,0.87673 -3.51441,1.09591v0c-0.21965,0.65754 -0.4393,1.53427 -0.65895,2.84936c-0.4393,1.53427 -0.4393,2.411 -0.65895,3.06854c0,0.21918 -0.4393,2.19181 -1.3179,5.9179c0,0 0,-0.21918 0,-0.43836c0,-0.21918 0,-0.43836 0,-0.43836c-0.21965,0.21918 -0.21965,0.43836 -0.21965,0.43836c-0.21965,1.31509 -0.8786,3.5069 -1.7572,6.57544c-0.21965,0.43836 -0.4393,1.09591 -0.65895,1.97263c0,0 0,0 0,0.21918c0,-0.21918 0,-0.43836 0,-0.65754c0,-0.21918 0,-0.43836 0,-0.87673c0,-0.65754 0,-0.87673 0,-0.87673c0,-0.21918 0,-0.21918 0,-0.43836c0,-0.21918 0,-0.43836 0,-0.43836c0,-0.21918 0,-0.43836 0,-0.87673c0,-0.65754 0,-0.87673 0,-0.87673c0,-0.43836 0,-0.65754 0,-0.87673c-0.21965,0.43836 -0.21965,0.65754 -0.21965,0.65754c0,0.21918 -0.21965,0.87673 -0.4393,1.75345c-0.21965,0.65754 -0.21965,1.31509 -0.4393,1.75345c-0.21965,0.43836 -0.21965,0.65754 -0.4393,0.87673l0.21965,-1.75345c0,-0.21918 0,-0.43836 0,-0.87673c0,-0.43836 0,-0.65754 0,-0.87673c-0.21965,0.43836 -0.4393,1.09591 -0.65895,1.97263c-0.21965,0.87673 -0.4393,1.53427 -0.65895,1.97263v-1.31509c0,0 -0.21965,0.87673 -0.65895,2.411c-0.21965,0 -0.21965,0 -0.21965,-0.21918c0,-0.65754 0,-1.09591 0,-1.31509c0,-2.19181 0.21965,-3.5069 0.21965,-4.16445c0.21965,-0.87673 0.4393,-1.97263 0.65895,-3.5069c0.21965,-1.97263 0.8786,-4.82199 1.97685,-8.98644c0,-0.43836 0.21965,-0.87673 0.65895,-0.87673c0,0 0.21965,-0.21918 0.8786,-0.43836c0,0 -0.21965,0 -0.4393,0c-0.21965,0 -0.4393,0 -0.4393,0zM140.7924,318.10419c0.21965,0 0.21965,0.21918 0.21965,0.43836c0,0.21918 0,0.43836 -0.21965,1.09591c0,0.43836 -0.21965,0.87673 -0.21965,1.09591c0,0.43836 -0.21965,1.09591 -0.65895,2.19181c0,0 0,0.21918 -0.21965,0.43836c-0.21965,-1.31509 0.21965,-2.84936 0.8786,-4.60281c0,-0.21918 0.21965,-0.21918 0.4393,-0.43836zM169.78626,313.50138v0v0c0,-0.65754 -0.21965,-1.31509 -0.4393,-1.75345c-0.21965,0.21918 -0.4393,0.43836 -0.4393,0.43836c-0.21965,0 0,0.21918 0,0.43836c0.21965,0.43836 0.4393,0.65754 0.4393,0.87673c0,0 0,0 0.21965,0.21918zM163.41639,312.84383c0.65895,-0.65754 1.09825,-1.09591 1.53755,-1.31509c-0.4393,0 -0.8786,0.43836 -1.53755,0.87673c-0.4393,0.43836 -0.8786,1.09591 -1.3179,1.75345c0,0 0.4393,-0.43836 1.3179,-1.31509zM168.90765,329.06326c-0.21965,0.21918 -0.21965,0.21918 -0.4393,0.43836c-0.8786,0.87673 -1.7572,1.53427 -2.85546,2.19181c0,0 -0.65895,0.43836 -1.97685,1.09591c2.1965,-0.21918 3.95371,-1.53427 5.27161,-3.72608zM160.56094,323.36454c0.4393,-0.87673 0.65895,-1.31509 0.65895,-1.31509v0c0.21965,-0.21918 0.65895,-0.87673 0.8786,-1.31509c0.21965,-0.21918 0.21965,-0.43836 0.65895,-0.87673v0v0c-0.21965,0.21918 -0.21965,0.43836 -0.21965,0.43836c-0.21965,0.65754 -0.65895,1.31509 -0.8786,2.19181c-0.4393,1.75345 -0.4393,3.72608 0,6.13708c0.4393,0 0.65895,0 1.09825,0c0.65895,0 1.09825,-0.43836 1.53755,-0.65754c0.8786,-0.43836 1.53755,-1.09591 1.97685,-1.97263c0.8786,-1.09591 1.3179,-2.411 1.7572,-3.94527c0.21965,-0.87673 0.4393,-1.75345 0.4393,-3.06854c0.21965,-1.09591 0.21965,-2.411 0,-3.72608c-0.21965,-1.09591 -0.21965,-1.53427 -0.21965,-1.75345c0,0 0,-0.21918 0,-0.43836c-0.21965,0.21918 -0.4393,0.43836 -0.4393,0.43836c-1.53755,1.53427 -2.1965,2.19181 -2.1965,2.19181c-1.53755,1.31509 -2.85546,3.28772 -3.95371,5.69872c-0.21965,0.65754 -0.4393,1.09591 -0.4393,1.75345zM170.00591,308.24102c-0.8786,0.65754 -1.3179,0.87673 -1.3179,0.87673c0,0 -0.4393,0.21918 -1.09825,0.65754v0v0v0v0v0v0v0v0v0v0v0c0.21965,0 0.65895,-0.21918 1.3179,-0.43836c0,0 0,0 0,0.21918v0.21918c0,0 0,0.21918 -0.4393,0.43836h0.4393c-0.21965,0.21918 -0.4393,0.43836 -0.65895,0.65754c-0.21965,0.21918 -0.4393,0.43836 -0.65895,0.65754c0,0 0.4393,-0.21918 1.3179,-0.65754c0.8786,-0.21918 1.09825,-0.43836 1.3179,-0.43836c0,0 -0.21965,0.21918 -0.4393,0.43836c-0.21965,0.21918 -0.4393,0.43836 -0.4393,0.43836v0v0c0,0 0.21965,0 0.4393,-0.21918l0.4393,-0.21918c0,0 0,0 -0.21965,0.21918c-0.8786,0.87673 -1.09825,1.09591 -1.09825,1.09591c0,0 -0.21965,0.21918 -0.21965,0.43836c0.21965,0 0.65895,-0.21918 1.3179,-0.65754v0l-0.4393,0.43836c0.65895,0.87673 1.09825,1.53427 1.09825,1.53427c0.65895,1.09591 0.8786,1.53427 0.8786,1.53427c0,-0.21918 -0.21965,-0.43836 -0.21965,-0.87673c-0.21965,-0.43836 -0.21965,-0.65754 -0.21965,-0.87673c0.21965,0 0.21965,0.21918 0.4393,0.43836c0.21965,0.21918 0.65895,0.87673 0.8786,1.31509c0,0.21918 0,0.43836 0.21965,0.65754c0,0.21918 0.21965,0.43836 0.21965,0.65754c0.4393,0.65754 0.65895,1.31509 0.65895,2.19181c0,0.65754 -0.21965,1.53427 -0.21965,1.97263c-0.4393,1.75345 -0.65895,2.63018 -0.65895,2.63018c-0.8786,2.63018 -1.97685,4.82199 -3.07511,6.35626c0,0 -0.65895,0.65754 -1.53755,1.75345c-0.4393,0.65754 -0.8786,1.09591 -0.8786,1.09591c0,0.21918 -0.21965,0.43836 -0.4393,0.65754c-0.21965,0.21918 -0.4393,0.65754 -0.4393,0.65754c0,0.21918 0,0.21918 -0.21965,0.21918c0,-0.21918 0,-0.43836 0.21965,-0.65754c0,-0.43836 0.21965,-0.43836 0.21965,-0.65754v0l-0.4393,0.21918c-1.3179,0.65754 -2.6358,1.09591 -4.17336,1.09591c-1.09825,0 -2.1965,-0.43836 -3.07511,-0.87673c-1.3179,-0.65754 -1.97685,-1.75345 -2.41615,-3.28772c-0.21965,-1.09591 -0.21965,-2.411 -0.21965,-3.94527c0,0.21918 0,0 0,-0.65754c0,-0.21918 0,-0.43836 0,-0.43836c0.8786,-3.72608 1.3179,-5.69872 1.53755,-6.13708c0.8786,-2.63018 2.1965,-4.82199 3.95371,-6.79463c0.8786,-0.87673 1.53755,-1.53427 2.41615,-1.97263l0.21965,-0.21918c1.09825,-0.65754 2.41615,-1.31509 3.73406,-1.97263c0.21965,-0.21918 0.4393,-0.21918 0.8786,-0.43836c0.4393,0 0.65895,-0.21918 0.8786,-0.21918c0,0 0,0 0.21965,0v0zM177.25437,315.69319c0.21965,-0.65754 0.4393,-1.75345 0.65895,-3.28772c-0.4393,0.87673 -0.65895,1.97263 -0.65895,3.28772zM175.93647,331.69344c-0.21965,0.43836 -0.21965,0.65754 -0.21965,0.65754v0c0,0.43836 0,0.65754 -0.21965,0.65754c-0.21965,0.21918 -0.21965,0.21918 -0.21965,0.43836c0,0.43836 -0.21965,0.65754 -0.21965,0.87673c0,-0.21918 0,-0.43836 0,-0.43836c0,-0.87673 0.21965,-2.411 0.21965,-4.60281c0,0 0,-0.43836 0,-1.53427c0,-1.53427 0,-2.411 0,-2.63018c0,-0.43836 -0.21965,-0.65754 -0.4393,-0.65754c0.21965,-0.21918 0.4393,-0.21918 0.4393,-0.43836c-0.21965,0 -0.4393,-0.21918 -0.65895,-0.21918c0.21965,-0.21918 0.4393,-0.43836 0.65895,-0.65754c-0.21965,0 -0.4393,0 -0.4393,0h-0.4393l-0.21965,-0.21918c-0.21965,-0.21918 -0.21965,-0.43836 0,-0.43836c0,-0.21918 0,-0.21918 0.4393,-0.43836v0c-0.4393,-0.43836 -0.4393,-0.65754 0,-0.87673c0,0 0.21965,0 0.65895,-0.21918c-0.21965,-0.21918 -0.21965,-0.21918 -0.21965,-0.21918c-0.21965,-0.21918 -0.21965,-0.43836 0,-0.43836c0,0 0.21965,0 0.4393,-0.21918c0.21965,-0.87673 0.21965,-1.09591 0.21965,-1.31509c0.4393,-3.72608 0.8786,-5.9179 0.8786,-6.57544c0,-0.43836 0.21965,-1.09591 0.4393,-1.97263c0,-0.21918 0,-0.43836 0.21965,-0.65754c0.21965,-0.21918 0.21965,-0.21918 0.4393,-0.21918c0.21965,0 0.4393,0 0.4393,0.21918c0,0 0,0.21918 0,0.43836c0,0 0,0.21918 0,0.43836c0,0 0.21965,-0.21918 0.4393,-0.65754l0.21965,-0.65754c0.21965,-0.21918 0.21965,-0.21918 0.4393,-0.21918c0,0 0.21965,0 0.21965,0.21918c0,0 0,0.21918 0,0.65754c0.21965,-0.43836 0.4393,-0.65754 0.4393,-0.65754c0,-0.21918 0.21965,-0.43836 0.21965,-0.43836c0.21965,-0.21918 0.21965,-0.21918 0.4393,-0.21918c0.21965,0.21918 0.21965,0.21918 0.21965,0.43836c0,0.65754 0,1.09591 0,1.31509v1.53427c0.21965,-0.87673 0.4393,-1.31509 0.4393,-1.31509c0.21965,-0.87673 0.4393,-1.31509 0.4393,-1.53427c0,-0.21918 0,-0.43836 0.21965,-0.43836c0.21965,0 0.21965,0.21918 0.21965,0.43836c0,0.87673 -0.21965,1.53427 -0.21965,1.97263c0,0.87673 -0.21965,2.19181 -0.4393,3.5069c-0.21965,1.97263 -0.4393,3.06854 -0.4393,3.5069v0.21918c1.7572,0 3.73406,-0.43836 5.49126,-1.09591c0.4393,-1.31509 0.65895,-1.97263 0.65895,-1.97263c0.4393,-1.75345 0.8786,-3.5069 1.53755,-5.47954c0,-0.43836 0.21965,-0.65754 0.4393,-0.65754c0.21965,0.21918 0.21965,0.21918 0.21965,0.21918c0,0.21918 0.21965,0.21918 0.21965,0.21918h0.21965c0,0 0,0 0,0.21918v0.87673c0,-0.43836 0.21965,-0.65754 0.21965,-0.65754c0,-0.21918 0.21965,-0.43836 0.21965,-0.43836c0.21965,-0.21918 0.4393,-0.21918 0.65895,0.21918v0.21918c0.21965,0 0.21965,-0.21918 0.21965,-0.21918c0.21965,-0.43836 0.4393,-0.65754 0.4393,-0.65754c0,-0.21918 0.21965,-0.21918 0.4393,-0.21918c0.21965,0 0.21965,0.21918 0.21965,0.43836c0,0.21918 0,0.21918 0,0.43836c-0.4393,2.63018 -0.65895,3.94527 -0.65895,3.94527c-0.21965,0.65754 -0.4393,2.19181 -0.8786,4.82199c0,0 0,0.21918 0,0.43836c0.21965,0 0.4393,0 0.65895,0c0.21965,0 0.4393,0 0.65895,0c-0.21965,0 -0.4393,0.21918 -0.65895,0.21918c-0.21965,0 -0.4393,0.21918 -0.65895,0.21918c-0.8786,4.38363 -1.53755,7.01381 -1.7572,8.10971c-1.09825,3.72608 -1.97685,6.35626 -2.6358,7.89053c0,-0.21918 0,-0.43836 0,-0.43836c0,-0.21918 0.21965,-0.43836 0.21965,-1.09591c0,-0.43836 0.21965,-0.87673 0.21965,-1.09591v-0.65754c-0.21965,0.21918 -0.4393,0.87673 -0.65895,1.75345c-0.21965,0.65754 -0.4393,1.09591 -0.65895,1.53427c-0.21965,-0.21918 0,-0.65754 0,-1.31509c0,-0.65754 0,-1.09591 0,-1.31509c-0.21965,1.09591 -0.4393,1.97263 -0.65895,2.63018c-0.21965,0 -0.21965,-0.21918 -0.21965,-0.21918v-0.21918v-0.21918c0,0 0,-0.21918 0,-0.65754c0,-0.21918 0,-0.43836 0,-0.43836c0,-0.21918 0,-0.43836 0,-0.65754c0,0.21918 -0.21965,0.65754 -0.4393,1.31509c-0.21965,0.43836 -0.21965,0.87673 -0.4393,1.31509c0,-0.21918 0,-0.43836 0,-0.87673c0,-0.43836 0,-0.65754 0,-0.87673c-0.21965,0.21918 -0.21965,0.65754 -0.4393,1.31509c-0.21965,0.65754 -0.21965,1.09591 -0.4393,1.31509c0,-0.43836 0,-1.09591 0,-1.75345c0,-0.43836 0.21965,-1.09591 0.21965,-2.19181c0,-0.87673 0.21965,-1.75345 0.21965,-2.19181c0.21965,-1.53427 0.4393,-3.28772 0.8786,-5.47954c0.21965,-1.09591 0.21965,-1.53427 0.21965,-1.53427c0,-0.21918 0.21965,-0.43836 0.65895,-0.65754c0,0 0.4393,-0.21918 0.8786,-0.43836c0,0 0.21965,0 0.21965,-0.21918c0,0 0,0 -0.21965,0c-0.21965,0 -0.21965,0 -0.4393,0c0.21965,-0.21918 0.4393,-0.43836 0.65895,-0.43836v0c-0.21965,0 -0.21965,0 -0.21965,0c0,0 -0.21965,0 -0.4393,0c0,0 0.21965,-0.21918 0.65895,-0.43836c0.4393,-0.21918 0.65895,-0.43836 0.65895,-0.43836h-0.21965c-2.41615,0.87673 -3.95371,1.31509 -4.39301,1.53427c0,0 -0.65895,0.21918 -1.97685,0.65754c0,0 -0.21965,0 -0.65895,0.21918c-0.21965,1.09591 -1.09825,5.04117 -2.6358,12.27416l-0.21965,0.21918c0,-0.21918 0.21965,-1.31509 0.21965,-3.06854v0v0l-0.4393,1.31509c0,0 0,-0.65754 0,-1.97263v-1.75345c-0.4393,1.09591 -0.8786,2.63018 -1.3179,4.82199v0v0c0.21965,-1.31509 0.21965,-1.97263 0.21965,-1.97263v-1.97263v0zM202.07487,320.73436c-0.21965,-0.21918 -0.4393,-0.43836 -0.8786,-0.65754c-0.21965,0.21918 -0.21965,0.43836 0,0.43836c0.21965,0.21918 0.4393,0.21918 0.8786,0.21918zM200.97661,331.47426c0,0 -0.65895,0.21918 -1.97685,0.43836c0,0.21918 0,0.43836 0,0.43836c1.53755,-0.21918 2.85546,-0.87673 4.17336,-1.53427c-0.21965,0 -0.4393,0 -0.8786,0.21918c-0.4393,0.21918 -0.65895,0.43836 -0.8786,0.43836zM195.92465,332.57016c0,0 0,0 0.21965,0h0.21965c0,-0.21918 0,-0.21918 0,-0.21918c0,-1.31509 0.21965,-2.63018 0.21965,-3.5069c0,-0.43836 0,-0.87673 0,-1.31509v0.21918c0,0.87673 -0.21965,2.411 -0.65895,4.82199zM200.31766,325.33718c-0.21965,0.65754 -0.4393,2.63018 -1.09825,5.9179c1.53755,0 3.07511,-0.65754 4.39301,-1.75345c0.8786,-0.43836 0.8786,-1.09591 0.4393,-1.53427c-0.21965,-0.21918 -0.65895,-0.87673 -1.7572,-1.75345c0,-0.21918 -0.21965,-0.21918 -0.21965,-0.21918c-0.21965,0 -0.8786,-0.21918 -1.7572,-0.65754zM201.63557,311.96711c0,-0.65754 0.21965,-1.09591 0.21965,-1.53427c0.21965,0.21918 0.21965,0.43836 0.21965,0.87673c0.21965,1.97263 0.21965,3.28772 0.21965,3.72608c0,1.31509 -0.21965,2.411 -0.21965,3.72608c0,0.43836 0.21965,0.65754 0.4393,0.87673c1.53755,0.65754 2.85546,1.53427 3.95371,2.411c0.21965,0.21918 0.4393,0.43836 0.8786,0.65754c0.4393,0.21918 0.65895,0.43836 0.8786,0.65754c0.8786,0.65754 1.7572,1.31509 2.1965,1.75345c0.4393,0.21918 0.65895,0.65754 1.09825,1.09591c0.21965,0.43836 0.4393,1.09591 0.4393,1.75345c0,1.53427 -0.8786,2.84936 -2.1965,4.16445c-0.8786,0.87673 -1.97685,1.75345 -3.51441,2.19181c-0.8786,0.21918 -2.1965,0.65754 -4.17336,0.87673c-0.4393,0.21918 -1.53755,0.21918 -3.29476,0.21918c-1.7572,0 -3.29476,0 -5.05196,-0.21918c0,0 -0.21965,-0.21918 -0.8786,-0.21918c0,-0.21918 0,-0.43836 0.21965,-0.43836c0.4393,-0.21918 0.8786,-0.21918 1.53755,-0.21918c0.4393,0 0.4393,-0.21918 0.65895,-0.21918c-0.4393,-0.21918 -0.65895,-0.21918 -0.65895,-0.21918c-0.65895,-0.21918 -1.09825,-0.21918 -0.8786,-0.21918c0,0 -0.21965,0 -0.4393,-0.21918c0.4393,0 1.3179,-0.21918 2.1965,-0.21918c-0.21965,0 -0.4393,-0.21918 -0.8786,-0.21918c-0.4393,0 -0.65895,-0.21918 -0.8786,-0.21918c0.4393,0 1.09825,-0.21918 1.7572,-0.21918c0,-1.53427 0.21965,-4.82199 0.65895,-9.86317c-0.21965,-0.21918 -0.65895,-0.43836 -1.09825,-0.65754c0,0 0.21965,0 0.65895,0h0.4393c0.21965,-1.75345 0.4393,-2.84936 0.4393,-2.84936c0.21965,-1.53427 0.4393,-2.411 0.4393,-2.84936c0,-0.65754 0.21965,-1.53427 0.4393,-2.63018c0,-0.21918 0,-0.65754 0.21965,-1.31509c0,-0.65754 0.21965,-1.09591 0.21965,-1.31509c0.21965,-1.31509 0.65895,-2.19181 0.8786,-2.84936c0,0.21918 0,0.65754 0,1.09591c0,0.43836 0,0.87673 0,1.09591c0.21965,-0.21918 0.21965,-0.65754 0.4393,-1.31509c0.21965,-0.43836 0.21965,-0.87673 0.4393,-1.09591c0,3.06854 0,4.82199 0,4.82199c0,-0.21918 0.21965,-0.65754 0.21965,-1.09591c0,-0.21918 0.21965,-0.65754 0.21965,-1.09591c0.21965,-0.65754 0.21965,-1.09591 0.21965,-1.09591c0,-0.65754 0.21965,-1.09591 0.21965,-1.09591c0,0.43836 0,1.09591 0,1.75345c0,0.87673 0,1.31509 0,1.75345zM213.93599,310.8712v0v0l-0.21965,0.43836c-0.8786,3.72608 -1.3179,6.13708 -1.53755,7.89053c-0.4393,3.72608 -0.8786,8.10971 -1.3179,12.71252c0,0.43836 -0.21965,1.53427 -0.21965,2.84936c0,0.21918 0,0.21918 0,0.43836c0.21965,0.21918 0.21965,0.21918 0.4393,0.21918l0.21965,-0.21918c0.21965,0 0.21965,-0.21918 0.21965,-0.43836c0,0 0.21965,-0.43836 0.21965,-0.87673v0c0.21965,0.43836 0.21965,0.65754 0.21965,0.87673l0.21965,-0.21918c0.21965,-0.21918 0.21965,-0.43836 0.21965,-0.65754c0.21965,-0.65754 0.21965,-1.09591 0.4393,-1.97263c0.21965,-1.09591 0.4393,-1.75345 0.4393,-1.97263c0,0 0.21965,-0.21918 0.21965,-0.65754c0,0.21918 0,0.21918 0,0.43836c0,0.43836 -0.21965,1.09591 -0.21965,1.75345c-0.21965,0.87673 -0.21965,1.53427 -0.21965,1.75345c0,0.21918 0,0.43836 0,0.43836h0.21965h0.21965c0.21965,-0.21918 0.21965,-0.21918 0.21965,-0.43836c0,-0.21918 0.21965,-0.65754 0.21965,-1.09591c0,-0.43836 0.21965,-0.87673 0.21965,-1.09591c-0.21965,0 0,-0.21918 0,-0.43836c0,0.21918 0,0.43836 0,0.87673v0.87673c0.21965,0.43836 0.21965,0.87673 0.21965,0.87673c0.21965,-0.21918 0.4393,-0.43836 0.4393,-0.65754c0,-0.21918 0.21965,-0.65754 0.21965,-0.65754c0,0.43836 0,0.65754 0,0.65754v0.43836c0,0.21918 0,0.21918 0.21965,0.21918c0,0 0.21965,0 0.21965,-0.21918v-0.43836c0,-0.87673 0,-1.31509 0,-1.31509c0.4393,-3.5069 0.8786,-6.13708 1.09825,-8.3289c0,-0.21918 0.21965,-1.09591 0.4393,-2.84936c0.21965,-1.09591 0.4393,-2.19181 0.4393,-2.84936c0,-0.65754 0.21965,-3.28772 0.65895,-8.3289c0,0 0,0 0,-0.21918c0,0.21918 -0.21965,0.43836 -0.21965,0.65754c0,0 0,0 0,0.21918v0.21918c0,0.43836 -0.21965,0.65754 -0.21965,0.65754c0,-0.87673 0.21965,-1.53427 0.21965,-1.97263c0,0.21918 -0.21965,0.43836 -0.21965,0.43836v-0.21918c0,-0.21918 0,-0.21918 0,-0.21918c-0.21965,0.21918 -0.4393,0.65754 -0.65895,1.31509c-0.21965,0.21918 -0.21965,0.65754 -0.4393,1.31509c-0.4393,0.87673 -0.4393,1.31509 -0.4393,1.31509c-0.21965,0.87673 -0.4393,1.31509 -0.4393,1.31509c0,0 0.21965,-0.65754 0.21965,-1.75345c0,-0.21918 0,-0.43836 0,-0.87673c0.21965,-0.43836 0.21965,-0.65754 0.21965,-0.87673c0,-0.87673 0,-1.31509 0,-1.75345c-0.21965,0.87673 -0.4393,2.19181 -0.8786,3.94527c0,-0.65754 0,-1.31509 0,-1.97263c0,0 0,-0.43836 0,-0.65754c0,-0.21918 0,-0.65754 0,-0.65754c0,0 0,0 0,-0.21918v0v0c-0.4393,1.53427 -0.65895,2.63018 -0.8786,3.28772v0v0v-0.87673zM237.87788,318.98091c-0.21965,-0.21918 -0.4393,-0.21918 -0.8786,-0.43836c-0.21965,0.21918 -0.21965,0.43836 0,0.43836c0.21965,0.21918 0.4393,0.21918 0.8786,0zM232.82592,327.96735c-0.21965,0.87673 -0.4393,2.63018 -0.65895,5.04117c0,-0.21918 0.21965,-0.21918 0.21965,-0.21918c0.21965,0 0.21965,0 0.21965,0c0,-0.21918 0,-0.21918 0,-0.21918c0,-1.31509 0,-2.63018 0,-3.5069c0,-0.43836 0,-1.09591 0,-1.31509v0.21918zM233.92418,308.4602c2.41615,-0.43836 4.39301,-0.65754 5.71091,-0.65754h1.3179c1.53755,0 3.29476,0.21918 5.27161,0.43836v0c-0.21965,0 -0.65895,0.21918 -1.09825,0.21918v0c1.09825,0.21918 1.53755,0.21918 1.7572,0.21918v0c0,0 -0.65895,0.21918 -1.97685,0.43836v0c0.8786,0.21918 1.3179,0.43836 1.7572,0.43836v0.21918l-1.3179,0.21918v0c0.21965,0 0.4393,0 0.8786,0.21918v0c-0.8786,0.21918 -1.3179,0.43836 -1.3179,0.43836v0h0.21965h0.4393c0.21965,0 0.21965,0 0.21965,0c-3.95371,1.09591 -6.80916,1.53427 -9.00567,1.53427c0.21965,1.09591 0.21965,2.63018 0.21965,4.16445c0,0.65754 0,0.87673 0,1.09591c0,0.43836 0.21965,0.65754 0.8786,0.65754c0.65895,0 3.07511,0.65754 7.02881,1.97263c1.53755,0.65754 2.1965,1.31509 2.1965,2.411v0c0,2.411 -1.53755,4.82199 -4.61266,7.67135c-1.97685,1.75345 -4.61266,3.06854 -7.24846,4.16445c-3.73406,1.53427 -6.15021,2.19181 -6.80916,2.19181v0c0,-0.43836 0.65895,-0.87673 1.97685,-1.31509c0,-0.21918 0.21965,-0.21918 0.21965,-0.21918v0v0c-0.4393,0 -0.8786,0 -1.53755,0.21918h-0.21965v0c0,0 0.65895,-0.21918 1.97685,-0.87673h-0.21965c-0.65895,0.21918 -1.09825,0.21918 -1.3179,0.21918v0l1.53755,-0.87673c0.21965,-6.13708 0.4393,-9.4248 0.4393,-9.86317c-0.65895,-0.21918 -0.8786,-0.21918 -1.09825,-0.21918v-0.21918c0.65895,-0.21918 1.09825,-0.43836 1.09825,-0.65754c0.21965,-3.72608 0.65895,-7.01381 1.09825,-9.64398c0,0 0,-0.43836 0.21965,-1.09591c-0.21965,0 -0.21965,0 -0.21965,0v0l0.4393,-0.21918v0c-0.65895,0 -1.09825,0 -1.09825,-0.21918l0.8786,-0.65754v0c-0.65895,0 -1.09825,-0.21918 -1.09825,-0.43836c0,-0.21918 -0.21965,-0.43836 -0.4393,-0.65754v-0.21918c0.21965,-0.21918 0.4393,-0.43836 0.65895,-0.43836v0c-0.4393,0 -0.65895,-0.21918 -0.65895,-0.43836c0,-0.43836 0.8786,-0.65754 2.85546,-0.87673zM234.36348,312.40547v0v0.21918v0zM237.65823,324.67963h-1.7572l-0.8786,6.13708c1.09825,-0.43836 2.41615,-1.31509 3.95371,-3.06854c0.65895,-0.65754 0.8786,-1.09591 0.8786,-1.53427c0,-0.43836 -0.4393,-0.65754 -1.3179,-1.09591c-0.65895,-0.21918 -0.8786,-0.43836 -1.09825,-0.43836zM234.80278,331.69344c1.3179,-0.65754 2.6358,-1.53427 3.95371,-2.84936c-1.7572,1.09591 -2.6358,1.75345 -2.6358,1.75345c-0.8786,0.43836 -1.3179,0.65754 -1.3179,0.87673zM254.79097,320.95355c-0.4393,0.43836 -0.8786,1.09591 -0.8786,1.97263c0.4393,-0.43836 0.8786,-1.09591 0.8786,-1.97263zM253.91236,321.39191c-0.8786,1.75345 -1.3179,3.06854 -1.3179,3.5069c1.09825,-3.06854 2.1965,-5.26035 2.6358,-6.79463c-0.21965,0.43836 -0.8786,1.53427 -1.53755,3.28772zM260.28223,309.77529c0.4393,-0.87673 0.65895,-1.31509 0.65895,-1.31509v0c-0.21965,0.87673 -0.21965,1.31509 -0.21965,1.31509c0,0 0.21965,0.43836 0.4393,1.31509c0.21965,0.21918 0.21965,0.43836 0.21965,0.43836c1.3179,4.16445 1.97685,6.35626 2.1965,6.79463c1.53755,4.60281 2.41615,7.67135 2.6358,9.20562c0,0.43836 0,0.87673 0.21965,1.31509c0,0.65754 0.21965,1.09591 0.21965,1.31509c0.21965,0.21918 0,0.21918 0,0.43836c0,-0.21918 -0.21965,-0.65754 -0.65895,-1.31509c-0.21965,-0.43836 -0.4393,-0.87673 -0.65895,-1.31509c0,0.43836 0.21965,1.09591 0.4393,2.19181c0.21965,1.31509 0.4393,2.19181 0.4393,2.19181c-0.21965,-0.21918 -0.4393,-0.65754 -0.65895,-1.09591c-0.21965,-0.43836 -0.4393,-0.87673 -0.65895,-1.09591c0,0 0,0.21918 0,0.43836c0.21965,0.43836 0.4393,1.09591 0.65895,1.97263c0.4393,0.87673 0.65895,1.53427 0.65895,1.97263c0,0 0.21965,0.21918 0.21965,0.65754c-0.21965,-0.21918 -0.4393,-0.43836 -0.65895,-0.87673c0,-0.21918 -0.21965,-0.43836 -0.4393,-0.87673c-0.21965,-0.21918 -0.21965,-0.43836 -0.4393,-0.87673c0,0 -0.21965,-0.21918 -0.21965,-0.43836c0,-0.21918 -0.21965,-0.43836 -0.21965,-0.43836c-0.21965,-0.43836 -0.4393,-0.87673 -0.4393,-0.87673c-0.21965,-0.43836 -0.4393,-0.65754 -0.4393,-0.65754c0,0.43836 0,0.87673 0.21965,1.75345c0.21965,1.09591 0.21965,1.53427 0.21965,1.75345c-0.21965,-0.21918 -0.4393,-0.43836 -0.4393,-0.65754c-0.21965,-0.43836 -0.65895,-1.31509 -1.09825,-2.63018c-0.4393,-1.31509 -0.8786,-2.19181 -1.09825,-2.84936c0,0 0,-0.21918 -0.21965,-0.43836c0,0 0.65895,2.411 1.7572,7.45217c-0.21965,-0.43836 -0.4393,-0.65754 -0.4393,-0.87673c-0.4393,-0.65754 -0.8786,-1.75345 -1.3179,-3.06854c-0.65895,-1.75345 -1.09825,-2.63018 -1.3179,-3.06854c-0.4393,-1.31509 -1.09825,-3.06854 -1.7572,-5.26035c-0.21965,-0.43836 -0.21965,-0.65754 0,-1.09591c0,-0.65754 0.4393,-1.31509 0.65895,-2.19181c0,0 0.21965,-0.43836 0.4393,-1.31509c-0.4393,0.21918 -0.8786,1.31509 -1.53755,3.06854v0c0.21965,-0.21918 0.21965,-0.65754 0.4393,-1.31509c0.21965,-0.65754 0.4393,-1.09591 0.4393,-1.31509c-0.4393,0.87673 -0.65895,1.31509 -0.8786,1.75345c-0.21965,0.21918 -0.4393,0.87673 -0.65895,1.53427c-0.21965,0.65754 -0.4393,1.09591 -0.65895,1.53427c-0.21965,0.87673 -0.8786,1.97263 -1.3179,3.28772c-0.65895,1.31509 -1.3179,3.06854 -2.41615,5.47954c0,0 -0.21965,0.21918 -0.21965,0.43836c-0.21965,0.21918 -0.21965,0.21918 -0.4393,0.21918c0,0 0,0 -0.21965,0l-0.21965,0.21918c-0.21965,0.21918 -0.4393,0.21918 -0.4393,0.21918c-0.21965,0 -0.21965,0 -0.21965,-0.21918c0,-0.21918 0,-0.43836 0,-0.43836c0,-0.21918 0,-0.43836 0.21965,-1.09591c0,0 0.21965,-0.43836 0.4393,-1.31509c-0.21965,0.21918 -0.21965,0.43836 -0.4393,0.87673c-0.21965,0.21918 -0.21965,0.43836 -0.4393,1.09591c-0.21965,0.43836 -0.4393,0.87673 -0.4393,1.09591c0,0.21918 -0.21965,0.43836 -0.21965,0.65754c0,0.21918 -0.21965,0.21918 -0.21965,0.21918c0,0 -0.21965,0 -0.21965,-0.21918c0,0 0,0 0,-0.21918c0,0.43836 -0.21965,0.65754 -0.21965,0.65754c0,0.21918 0,0.21918 -0.21965,0.21918c-0.21965,0 -0.21965,0 -0.21965,-0.21918c0,-0.21918 0,-0.43836 0,-0.43836c0,-0.43836 0.21965,-0.87673 0.4393,-1.75345c0,0 0.21965,-0.21918 0.21965,-0.65754c-0.21965,0.43836 -0.65895,1.31509 -1.09825,2.411c0,0.21918 -0.21965,0.21918 -0.21965,0.43836c-0.21965,0.21918 -0.21965,0.21918 -0.4393,0.21918c-0.21965,0 -0.21965,-0.21918 -0.21965,-0.43836c0,-0.21918 0,-0.21918 0,-0.43836c0.4393,-1.53427 0.8786,-2.63018 0.8786,-2.84936c0.65895,-1.97263 1.3179,-3.5069 1.7572,-4.82199c0.65895,-2.19181 1.53755,-4.16445 2.41615,-6.57544c0.4393,-1.31509 1.53755,-3.28772 2.85546,-6.13708c0.21965,-0.21918 0.21965,-0.65754 0.21965,-1.09591c0,-0.43836 -0.21965,-1.53427 -0.4393,-2.84936c0,-0.21918 0,-0.43836 0,-0.65754c0,-0.21918 0,-0.21918 0.21965,-0.21918l0.21965,0.21918c0,0 0.21965,0.21918 0.21965,0.43836c0.4393,1.31509 0.65895,1.97263 0.65895,1.97263c0,0 0,0 0.21965,0.21918c0.21965,-0.43836 0.21965,-0.65754 0.21965,-0.65754v-0.21918v-0.21918c0,-0.21918 0.21965,-0.43836 0.4393,-0.43836c0,0 0.21965,0 0.4393,0c0,0 0,0.21918 0,0.43836c-0.21965,0.21918 0,0.43836 0,0.43836c0.21965,-0.21918 0.21965,-0.43836 0.21965,-0.43836c0.21965,0 0.21965,-0.21918 0.4393,-0.43836c0.21965,-0.21918 0.4393,-0.43836 0.4393,-0.43836c0.21965,0 0.21965,0 0.21965,0v0c0,-0.21918 0.21965,-0.43836 0.4393,-0.65754c0,0 0,0.21918 0,0.43836c0,0.21918 0,0.43836 0,0.43836c0,0.21918 0.21965,0.43836 0.4393,0.65754c0,0 0,-0.21918 0.21965,-0.43836c0,-0.21918 0.21965,-0.43836 0.21965,-0.43836c0,0.21918 0,0.43836 0,0.65754c0,0.43836 -0.21965,0.65754 -0.21965,0.87673c0,0.43836 0,0.65754 0.21965,1.09591c0.21965,-0.21918 0.21965,-0.43836 0.21965,-0.87673c0,-0.43836 0,-0.65754 0,-0.87673c0.21965,0 0.4393,0.21918 0.4393,0.21918zM263.57698,313.50138l-0.21965,-0.21918c-0.8786,-2.411 -1.3179,-4.16445 -1.53755,-5.47954c-0.21965,-0.21918 -0.21965,-0.65754 -0.21965,-0.87673c0,-0.21918 0,-0.43836 0.21965,-0.43836c0.21965,0 0.4393,0.21918 0.4393,0.43836c0.21965,1.09591 0.4393,1.75345 0.4393,2.19181c0,0.43836 0.21965,1.75345 0.65895,3.72608c0,0 0.21965,0.43836 0.21965,0.87673v0v0zM277.63461,317.22746c-0.21965,0.43836 -0.65895,1.53427 -1.3179,3.28772c-0.65895,1.97263 -1.09825,3.06854 -1.09825,3.28772c1.3179,-0.43836 1.97685,-0.65754 1.97685,-0.65754c0.21965,0 0.65895,-0.21918 1.97685,-0.65754c-0.4393,-1.97263 -0.8786,-3.72608 -1.3179,-5.26035zM283.34552,321.83027c0.4393,-0.21918 0.65895,-0.21918 0.65895,-0.21918c0,0 0.4393,0 1.3179,-0.21918c-0.21965,0 -0.4393,0.21918 -0.8786,0.43836c-0.4393,0.21918 -0.65895,0.43836 -0.8786,0.43836c0.21965,1.09591 1.09825,4.16445 2.1965,9.86317c-0.21965,-0.21918 -0.4393,-0.65754 -0.8786,-1.75345c-0.4393,-1.09591 -0.8786,-1.53427 -0.8786,-1.75345c0,0.21918 0.21965,0.87673 0.4393,2.19181c0.21965,1.31509 0.4393,1.97263 0.4393,2.19181c0,0 -0.21965,0 -0.21965,-0.21918c0,-0.21918 -0.21965,-0.43836 -0.21965,-0.43836c0,0.65754 0,1.09591 0,1.31509c-0.21965,-0.21918 -0.4393,-0.65754 -0.65895,-1.31509c-0.21965,-0.65754 -0.4393,-1.09591 -0.65895,-1.31509c0,0.21918 0.21965,0.43836 0.21965,0.87673c0.21965,0.43836 0.21965,0.65754 0.21965,0.87673v0c-0.21965,-0.21918 -0.21965,-0.21918 -0.21965,-0.21918c0,0 -0.21965,-0.43836 -0.65895,-1.31509c-0.21965,-0.43836 -0.21965,-0.43836 -0.4393,-0.65754l1.09825,4.16445c-0.4393,-0.87673 -1.53755,-3.5069 -3.29476,-7.89053c0.21965,0 0.4393,-0.21918 0.8786,-0.43836c0,0 -0.21965,0 -0.4393,0c-0.21965,0 -0.21965,0 -0.4393,0c0.21965,0 0.4393,-0.21918 0.8786,-0.43836c0.4393,-0.21918 0.65895,-0.21918 0.8786,-0.43836c-0.21965,0.21918 -0.4393,0.21918 -0.4393,0.21918c-1.09825,0.21918 -2.1965,0.65754 -3.07511,1.09591c-0.8786,0.21918 -2.6358,1.09591 -4.83231,1.97263c-0.4393,0.21918 -0.65895,0.43836 -0.65895,0.65754c-0.21965,0.21918 -0.65895,1.31509 -1.3179,2.84936c0,0.43836 -0.21965,0.43836 -0.21965,0.65754c0,-0.21918 0,-0.43836 0,-0.65754c-0.21965,0.43836 -0.4393,0.87673 -0.65895,1.31509c-0.21965,0.65754 -0.4393,1.09591 -0.65895,1.31509c0,-0.21918 0,-0.65754 0.21965,-1.09591c0.21965,-0.43836 0.21965,-0.87673 0.21965,-1.09591c-0.21965,0.21918 -0.21965,0.43836 -0.4393,0.65754c-0.21965,0.43836 -0.4393,0.65754 -0.4393,0.65754c0,-0.21918 0,-0.43836 0.21965,-0.87673c0.21965,-0.43836 0.21965,-0.65754 0.21965,-0.87673c0,0.21918 -0.21965,0.43836 -0.4393,0.87673c-0.21965,0.21918 -0.21965,0.43836 -0.4393,0.65754c0,-0.43836 0.21965,-0.87673 0.21965,-1.09591c-0.21965,0.21918 -0.4393,0.87673 -0.8786,1.53427c-0.4393,0.65754 -0.65895,1.31509 -0.8786,1.53427c0,-0.21918 0,-0.43836 0,-0.43836c0.4393,-1.75345 0.65895,-2.63018 0.65895,-2.411c0.21965,-0.43836 0.21965,-0.65754 0.21965,-0.87673c-0.21965,0.21918 -0.21965,0.65754 -0.4393,1.09591c0,0.43836 -0.21965,0.65754 -0.4393,0.87673h-0.21965c0,-0.21918 0,-0.43836 0,-0.65754c0.4393,-0.87673 0.4393,-1.53427 0.65895,-1.97263c0,-0.21918 0.4393,-1.53427 1.3179,-3.94527c0,0 0,0 0.21965,-0.43836c-0.4393,0 -0.65895,0 -0.65895,0c-0.21965,0 -0.21965,-0.21918 -0.21965,-0.21918c-0.21965,0 0,-0.21918 0,-0.21918c0.21965,0 0.4393,-0.21918 0.65895,-0.21918c0.21965,0 0.4393,-0.21918 0.65895,-0.65754c0.21965,-0.43836 0.4393,-1.53427 1.09825,-3.06854c0.65895,-2.19181 1.53755,-3.94527 2.1965,-5.47954c0,-0.21918 0.65895,-1.97263 2.1965,-5.26035c0.21965,-0.43836 0.21965,-0.65754 0.4393,-0.87673c0,0.43836 0,0.87673 -0.21965,1.31509v0c0.21965,-0.65754 0.4393,-0.87673 0.4393,-0.87673c0,-0.21918 0,-0.43836 0,-0.65754c0,-0.65754 -0.21965,-1.09591 -0.21965,-1.75345c0.21965,0.21918 0.21965,0.43836 0.4393,0.87673c0.21965,0.43836 0.4393,0.65754 0.4393,0.87673c0.21965,-0.21918 0.21965,-0.21918 0.21965,-0.43836c0,-0.43836 -0.21965,-0.87673 -0.21965,-1.09591c0,-0.21918 0,-0.21918 0,-0.43836c0.21965,0.43836 0.4393,0.65754 0.4393,0.65754c0,0 0.21965,-0.21918 0.21965,-0.43836c0.21965,0.21918 0.21965,0.21918 0.21965,0.21918c0,0.43836 0.21965,0.65754 0.21965,0.65754c0,-0.21918 0,-0.21918 0,-0.21918v-0.21918v-0.21918c0,-0.21918 0,-0.43836 0.21965,-0.43836c0.21965,0 0.4393,0 0.4393,0.21918v0.21918v0.21918c0.21965,0 0.21965,0.21918 0.21965,0.43836c0.21965,0.21918 0.21965,0.43836 0.21965,0.43836c0,0 0.21965,0 0.21965,0.21918c0.21965,-0.21918 0.21965,-0.43836 0.4393,-0.65754c0.21965,-0.43836 0.4393,-0.65754 0.4393,-0.65754c0.4393,-0.65754 0.65895,-1.09591 0.8786,-1.31509v0.21918c-0.4393,1.31509 -0.8786,2.411 -1.09825,3.06854c0,0.43836 0,0.65754 0,0.87673c0,0 0.21965,0.21918 0.21965,0.43836c0.21965,0.21918 0.21965,0.21918 0.21965,0.43836c0,0 0.21965,0.21918 0.4393,0.65754c0,-0.21918 -0.21965,-0.43836 -0.21965,-0.87673c0,-0.43836 0,-0.65754 0,-0.87673c0,0.21918 0.21965,0.43836 0.21965,0.87673c0.21965,0.43836 0.21965,0.87673 0.21965,0.87673c0,-0.21918 0.21965,0.43836 0.65895,1.53427c0.21965,0.65754 0.4393,1.09591 0.65895,1.53427c0,0 0,0.43836 0.21965,0.65754c0,0.21918 0.21965,0.43836 0.21965,0.65754c0.4393,0.65754 0.4393,1.09591 0.65895,1.53427c0,0.21918 0.21965,0.65754 0.4393,1.75345zM272.14335,317.88501c-0.21965,1.53427 -0.8786,3.5069 -1.97685,6.13708c0,0 0,0 -0.21965,0.21918c-0.21965,0 -0.21965,-0.21918 -0.21965,-0.43836c0.21965,-0.21918 0.21965,-0.43836 0.21965,-0.65754c0.4393,-1.31509 0.8786,-2.411 1.53755,-3.5069c0.21965,0 0.4393,-0.65754 1.09825,-1.75345zM272.58265,316.35074c0,0.21918 0,0.43836 0,0.43836c-0.65895,1.53427 -1.3179,3.28772 -1.97685,5.04117c0,0 -0.21965,0.21918 -0.21965,0.43836c-0.21965,0.21918 -0.21965,0.43836 -0.21965,0.43836c-0.21965,0 -0.21965,0.21918 -0.21965,0.21918h-0.21965c-0.21965,0 -0.21965,-0.21918 -0.21965,-0.21918c0,-0.21918 0,-0.43836 0,-0.65754c0.4393,-1.09591 0.8786,-2.411 1.53755,-3.5069c0.21965,-0.21918 0.4393,-0.87673 1.3179,-2.411v0zM291.47258,307.80266c2.85546,-0.65754 5.49126,-0.87673 7.90741,-0.87673h0.65895c2.1965,0 3.95371,0 5.05196,0.21918v0l-1.09825,0.21918v0.21918c0.21965,0 0.8786,0 1.7572,0v0c-1.53755,0.21918 -2.41615,0.43836 -2.41615,0.43836v0c0.65895,0 1.3179,0.21918 1.97685,0.21918v0c-1.09825,0.21918 -1.53755,0.43836 -1.53755,0.43836l0.8786,0.21918v0c0,0.21918 -0.65895,0.43836 -1.7572,0.65754v0h1.09825v0c0,0.21918 -1.09825,0.43836 -3.07511,0.87673c-3.73406,0.65754 -6.36986,1.09591 -7.46811,1.09591v1.75345c-0.4393,8.3289 -0.8786,13.58925 -1.09825,15.78106v0v0c0.21965,-3.5069 0.21965,-5.26035 0.21965,-5.69872v-1.09591v0c-0.65895,5.69872 -1.09825,9.20562 -1.3179,10.52071c-0.21965,0 -0.4393,0.21918 -0.65895,0.87673c-0.21965,0 -0.4393,0 -0.4393,0c-0.65895,0 -0.8786,0.21918 -0.8786,0.43836l-0.21965,0.21918h-0.21965c-0.21965,0 -0.4393,-0.43836 -0.4393,-1.53427v0c-0.21965,0.87673 -0.21965,1.31509 -0.21965,1.53427v0c-0.21965,0 -0.21965,-0.43836 -0.4393,-1.75345v0c0,0.87673 -0.4393,1.31509 -0.65895,1.31509v0c-0.21965,0 -0.21965,-0.21918 -0.21965,-0.43836c0,-1.97263 0.65895,-7.67135 1.53755,-17.09615c0.21965,-1.31509 0.4393,-2.84936 0.8786,-4.38363v-0.21918v0c0.21965,0 0.21965,0 0.21965,-0.21918h-0.4393c-0.4393,0 -0.65895,-0.21918 -0.65895,-0.21918c0,-0.21918 0.4393,-0.43836 1.09825,-0.65754v0h-0.21965h-0.65895c-0.21965,0 -0.4393,-0.21918 -0.4393,-0.65754c0,0 -0.21965,0 -0.21965,-0.21918v-0.21918c0,0 0.21965,-0.21918 0.8786,-0.43836v0c-0.4393,0 -0.65895,0 -0.65895,-0.21918v-0.21918c0,-0.21918 1.3179,-0.65754 3.73406,-0.87673zM288.83678,328.84408v0c-0.21965,0.65754 -0.21965,1.09591 -0.21965,1.09591v0v0l0.21965,-1.31509v0zM290.81363,310.43284c0,0 0,-0.21918 -0.21965,-0.43836c0,0.43836 0,0.65754 0,1.09591v0c0.21965,-0.21918 0.21965,-0.21918 0.21965,-0.21918c0.21965,-0.21918 0.21965,-0.43836 0.21965,-0.43836zM291.47258,310.65202c0,0.21918 0,0.43836 0,0.43836c0,0 0,0.21918 0.21965,0.21918c0,-0.21918 0,-0.43836 0,-0.43836c0,0 0,0 -0.21965,-0.21918z"/></g><g fill="#ce2729"><path d="M-2.85897,316.82187c18.88994,2.63018 37.99952,3.94527 57.10911,4.16445c1.7572,0 1.7572,3.06854 0,3.06854c-16.69343,0 -33.16721,0 -49.86064,0c0.21965,-1.09591 0.21965,-1.97263 0.4393,-3.06854c14.93623,2.84936 29.87246,4.16445 44.80868,4.16445c1.7572,0 1.7572,3.06854 0,3.06854c-11.42182,0 -23.06329,0.21918 -34.48511,0.21918c0.21965,-1.09591 0.21965,-1.97263 0.4393,-3.06854c12.08077,2.84936 24.60085,3.5069 36.90127,3.94527c1.7572,0 1.7572,3.06854 0,3.06854c-16.25413,0 -32.72791,0.21918 -48.98204,0.21918c-1.7572,0 -1.7572,-3.06854 0,-3.06854c16.25413,0 32.72791,-0.21918 48.98204,-0.21918v3.06854c-12.52007,-0.43836 -25.2598,-1.09591 -37.77987,-4.16445c-1.53755,-0.43836 -1.09825,-3.06854 0.4393,-3.06854c11.42182,0 23.06329,-0.21918 34.48511,-0.21918v3.06854c-15.37553,0 -30.53141,-1.31509 -45.68729,-4.16445c-1.53755,-0.21918 -1.09825,-3.06854 0.4393,-3.06854c16.69343,0 33.16721,0 49.86064,0v3.06854c-19.10959,-0.21918 -38.21917,-1.53427 -57.10911,-4.16445c-1.7572,-0.21918 -1.7572,-3.28772 0,-3.06854z"/><path d="M362.85897,333.0413c-18.88994,-2.63018 -37.99952,-4.16445 -57.10911,-4.16445c-1.7572,0 -1.7572,-3.06854 0,-3.06854c16.69343,0 33.16721,0 49.86064,0c-0.21965,1.09591 -0.21965,1.97263 -0.4393,3.06854c-14.93623,-2.84936 -29.87246,-4.16445 -44.80868,-4.16445c-1.7572,0 -1.7572,-3.06854 0,-3.06854c11.42182,0 23.06329,-0.21918 34.48511,-0.21918c-0.21965,1.09591 -0.21965,1.97263 -0.4393,3.06854c-12.08077,-2.84936 -24.60085,-3.5069 -36.90127,-3.94527c-1.7572,0 -1.7572,-3.06854 0,-3.06854c16.25413,0 32.72791,-0.21918 48.98204,-0.21918c1.7572,0 1.7572,3.06854 0,3.06854c-16.25413,0 -32.72791,0.21918 -48.98204,0.21918v-3.06854c12.52007,0.43836 25.2598,1.09591 37.77987,4.16445c1.53755,0.43836 1.09825,3.06854 -0.4393,3.06854c-11.42182,0 -23.06329,0.21918 -34.48511,0.21918v-3.06854c15.37553,0 30.53141,1.31509 45.68729,4.16445c1.53755,0.21918 1.09825,3.06854 -0.4393,3.06854c-16.69343,0 -33.16721,0 -49.86064,0v-3.06854c19.10959,0.21918 38.21917,1.53427 57.10911,4.16445c1.7572,0.21918 1.7572,3.28772 0,3.06854z"/><path d="M106.30729,308.27379c1.97685,-1.75345 3.07511,-2.63018 3.73406,-2.63018v0.21918c-0.65895,0.65754 -1.09825,1.09591 -1.09825,1.09591h0.21965c1.09825,-0.43836 2.1965,-0.65754 3.29476,-0.65754v0c1.7572,0 2.85546,0.87673 3.73406,2.411l0.21965,0.87673c0,0.87673 -0.4393,1.75345 -1.09825,2.84936l-0.21965,0.21918v0c0.4393,-0.87673 0.65895,-1.53427 0.65895,-2.19181v-0.21918v0c-0.21965,0.65754 -0.65895,1.09591 -1.09825,1.97263v0c0.21965,-0.87673 0.21965,-1.53427 0.21965,-1.53427c0,-0.43836 -0.4393,-0.65754 -1.3179,-0.87673c-0.21965,0 -0.4393,0 -0.8786,0c-1.7572,0 -3.07511,0.65754 -3.95371,1.75345v0c1.53755,-1.09591 2.6358,-1.53427 3.73406,-1.53427c0.4393,0 0.65895,0.21918 0.65895,0.21918v0.21918c-1.09825,0 -1.97685,0.21918 -2.41615,0.43836c-0.8786,0.43836 -1.7572,1.31509 -2.41615,2.63018c-0.65895,0.87673 -1.09825,1.75345 -1.53755,2.84936v0c3.29476,-0.21918 5.27161,-0.21918 5.71091,-0.21918v0c-1.09825,0.21918 -1.7572,0.21918 -2.1965,0.43836v0v0l2.1965,-0.21918v0c0,0 0,0 -0.21965,0.21918h0.21965v0c-1.09825,0.43836 -3.29476,1.09591 -6.15021,1.75345v0v0l5.93056,-0.43836h0.21965v0.21918l-4.17336,0.87673v0c0.4393,0 1.09825,0 1.97685,0h0.4393c0.4393,0 1.09825,0 1.7572,0h0.21965v0.21918c-2.6358,0.65754 -3.95371,1.09591 -3.95371,1.09591v0h1.09825v0.21918c-0.4393,0.21918 -2.1965,0.65754 -5.27161,1.09591c-0.21965,1.09591 -0.4393,2.19181 -0.4393,3.06854v0.43836c0,1.09591 0.21965,1.97263 0.8786,2.84936c0,0 0.21965,0.21918 0.4393,0.21918c0.8786,-0.21918 2.41615,-1.09591 4.39301,-2.84936l2.1965,-2.19181v0c0,0 -0.21965,0.65754 -0.8786,1.97263v0c1.53755,-1.31509 2.6358,-2.63018 3.51441,-3.72608v0c0,0 0,0.65754 -0.4393,1.97263l0.65895,-0.87673v0c-0.65895,1.75345 -1.97685,4.16445 -3.95371,7.23299c-1.7572,1.75345 -3.73406,2.63018 -6.36986,2.63018c-1.7572,0 -3.51441,-0.65754 -4.83231,-2.19181c-0.65895,-0.87673 -1.09825,-2.19181 -1.09825,-3.72608c0,-1.09591 0,-2.63018 0.21965,-4.16445c-0.4393,0.21918 -0.65895,0.21918 -0.65895,0.21918c-1.53755,7.01381 -2.6358,10.52071 -2.85546,10.52071h-0.21965c-0.21965,0 -0.21965,-0.21918 -0.21965,-0.43836v-0.43836v-0.21918v0v0c0,0.21918 -0.21965,0.65754 -0.65895,1.09591v0c-0.21965,0 -0.21965,-0.21918 -0.4393,-0.65754c-0.4393,0 -0.65895,-0.21918 -0.65895,-0.43836c0,-0.65754 0,-1.31509 0,-1.53427c-0.21965,0 -0.4393,0.43836 -0.8786,1.31509v0v0v-0.21918c0,0 0,-0.65754 0,-1.75345v0v0c-0.21965,0.43836 -0.4393,0.65754 -0.4393,0.65754v0v-0.65754c0,-0.87673 0.21965,-3.06854 0.8786,-6.35626v0c-0.65895,0 -0.8786,0 -0.8786,0c-0.4393,1.09591 -0.8786,1.97263 -0.8786,2.63018c-1.3179,1.97263 -2.6358,3.5069 -4.17336,5.04117c-1.97685,1.75345 -3.07511,2.63018 -3.73406,2.63018v-0.21918c0.65895,-0.65754 1.09825,-1.09591 1.09825,-1.09591v0c-1.09825,0.43836 -1.97685,0.65754 -3.07511,0.65754h-0.21965c-1.7572,0 -3.07511,-0.87673 -3.95371,-2.411c0,-0.43836 0,-0.65754 0,-0.65754c0,-0.65754 0.21965,-1.53427 1.09825,-3.06854v0h0.21965c-0.4393,0.87673 -0.65895,1.75345 -0.65895,2.19181c0,0 0,0.21918 0,0.43836l1.09825,-1.97263h0.21965l-0.21965,1.53427c0,0.43836 0.65895,0.65754 1.7572,0.87673h0.4393c1.7572,0 3.07511,-0.65754 3.95371,-1.75345v0c-1.53755,1.09591 -2.6358,1.53427 -3.73406,1.53427c-0.4393,0 -0.65895,0 -0.65895,-0.21918c0,0 0.65895,-0.21918 1.7572,-0.43836c0.8786,-0.21918 1.97685,-1.09591 2.85546,-2.63018c0.65895,-0.87673 1.09825,-1.75345 1.3179,-2.411v0c-2.41615,0.21918 -4.17336,0.21918 -5.71091,0.21918h-0.21965c0,0 -0.21965,0 -0.21965,-0.21918v0c0,-0.21918 0.4393,-0.43836 1.09825,-0.43836c0,-0.21918 0.21965,-0.21918 0.65895,-0.21918v0c-0.65895,0 -0.8786,-0.21918 -0.8786,-0.21918c0,-0.21918 1.97685,-0.65754 5.71091,-1.09591c0,-0.21918 0.21965,-0.21918 0.4393,-0.21918v0h-0.21965c-3.07511,0.21918 -4.83231,0.21918 -5.05196,0.21918l-0.21965,-0.21918v0c0,-0.21918 1.09825,-0.43836 3.73406,-0.87673v0h-0.65895h-0.65895c-1.09825,0 -1.7572,0 -1.7572,-0.21918v0c0.4393,-0.21918 0.8786,-0.43836 1.53755,-0.43836c0,-0.21918 0,-0.21918 0,-0.21918h-0.8786c-0.21965,0 -0.4393,0 -0.4393,-0.21918v-0.21918c0,-0.21918 0.8786,-0.43836 2.85546,-0.43836c1.53755,-0.21918 2.6358,-0.43836 2.85546,-0.43836c0.4393,-1.75345 0.65895,-2.84936 0.65895,-3.94527v-0.21918c0,-1.53427 -0.4393,-2.411 -1.3179,-3.06854h-0.4393c-1.09825,0 -2.85546,1.31509 -5.49126,3.94527c0,0.21918 -0.4393,0.43836 -1.09825,1.09591v0c0,-0.21918 0.21965,-0.87673 0.8786,-2.19181c-1.97685,1.97263 -3.29476,3.06854 -3.51441,3.72608v0v0l0.4393,-1.75345v0v0c0,0.21918 -0.21965,0.43836 -0.65895,0.87673v0v0c0.65895,-1.75345 1.97685,-4.16445 3.95371,-7.01381c1.7572,-1.97263 3.95371,-2.84936 6.58951,-2.84936c1.7572,0 3.29476,0.65754 4.83231,1.97263c0.8786,1.09591 1.3179,2.411 1.3179,3.94527c0,1.31509 -0.21965,3.06854 -0.4393,5.04117h0.21965c0.21965,0 0.4393,-0.43836 0.4393,-0.87673c1.53755,-5.9179 2.41615,-8.76726 2.6358,-8.76726v0c0,0.65754 -0.21965,1.09591 -0.21965,1.53427v0v0c0.21965,-0.43836 0.4393,-1.31509 0.8786,-2.411v0v1.53427v0l0.65895,-2.19181v0v3.28772v0c0.21965,-1.31509 0.4393,-2.411 0.8786,-3.5069v0l-0.21965,3.06854v0l0.4393,-1.75345h0.21965v0c0,1.31509 -0.4393,4.38363 -0.8786,9.20562v0c0.65895,0 1.09825,0 1.09825,-0.43836c0.65895,-1.53427 1.09825,-2.63018 1.09825,-2.84936c1.09825,-1.75345 2.6358,-3.5069 4.17336,-5.04117zM103.23218,308.93134c0.65895,-0.43836 1.09825,-0.65754 1.53755,-1.09591v0v0l-3.51441,5.04117h-0.21965v0v-0.21918c0,-0.65754 0.8786,-1.97263 2.41615,-3.72608zM118.38806,330.84948c0,0 -0.21965,0.21918 -0.21965,0.43836c0.4393,0 0.65895,-0.21918 0.8786,-0.43836c-0.21965,0 -0.65895,0 -0.65895,0zM117.07016,330.41112c0,0 0,-0.21918 0,-0.43836v0h-0.21965c-0.4393,0.65754 -0.4393,1.31509 -0.65895,2.19181c0.21965,0 0.4393,-0.21918 0.8786,-0.43836c0,-0.87673 0,-1.31509 0,-1.31509zM123.65967,314.19169c0.21965,0 0.21965,0 0.21965,0h0.21965c0,0.21918 -0.21965,0.65754 -0.21965,1.09591c-0.21965,0.43836 -0.21965,0.87673 -0.21965,1.09591c1.53755,-0.43836 2.41615,-0.65754 2.41615,-0.65754c0.4393,0 1.3179,-0.21918 2.41615,-0.43836c0.21965,0 1.09825,-0.21918 2.6358,-0.43836c0,0.21918 -0.21965,0.43836 -0.4393,0.43836c-0.4393,0 -0.65895,0.21918 -0.65895,0.21918c0.21965,-0.21918 0.65895,-0.21918 1.09825,-0.21918c0.4393,-0.21918 0.65895,-0.21918 0.8786,-0.21918c-0.4393,0.21918 -0.65895,0.43836 -1.3179,0.65754c-0.65895,0.21918 -1.09825,0.43836 -1.3179,0.65754c1.09825,-0.21918 1.97685,-0.43836 2.6358,-0.43836c-0.21965,0 -0.4393,0.21918 -0.8786,0.43836c-0.4393,0.21918 -0.65895,0.43836 -0.8786,0.65754c0.65895,0 1.3179,-0.21918 2.1965,-0.21918v0.21918c0,0.21918 -0.8786,0.43836 -2.1965,1.09591c-1.09825,0.43836 -1.7572,0.65754 -2.41615,0.87673c-1.53755,0.43836 -2.85546,0.87673 -3.95371,1.09591c-0.65895,0.21918 -1.09825,0.43836 -1.09825,1.09591c0,0.21918 -0.21965,1.31509 -0.65895,3.28772c0,0.21918 -0.21965,0.43836 -0.21965,0.65754c0,0 0,-0.21918 0,-0.43836c0,-0.21918 0,-0.21918 0,-0.43836c0,0.43836 -0.4393,1.09591 -0.65895,2.19181c0.21965,0 0.4393,0 0.4393,0c1.7572,-0.43836 2.85546,-0.65754 3.29476,-0.87673c0.8786,-0.21918 2.1965,-0.43836 4.39301,-0.87673c1.3179,-0.21918 2.6358,-0.43836 3.95371,-0.65754c0.21965,0 0.65895,0 0.8786,0c-0.21965,0.21918 -0.4393,0.21918 -0.4393,0.21918c-0.4393,0.21918 -1.09825,0.43836 -1.97685,0.65754c-1.09825,0.43836 -1.7572,0.65754 -1.97685,0.65754c-0.21965,0 -0.21965,0.21918 -0.4393,0.21918c0.21965,0 0.65895,0 1.7572,-0.21918c1.09825,-0.21918 1.7572,-0.21918 1.7572,-0.21918c0,0 -0.21965,0.21918 -0.8786,0.43836c0.21965,0 -0.21965,0.21918 -1.09825,0.43836c-0.4393,0.21918 -0.8786,0.21918 -1.09825,0.43836c0.4393,0 1.09825,-0.21918 1.97685,-0.21918c0.8786,-0.21918 1.53755,-0.21918 1.97685,-0.21918c-0.21965,0 -0.65895,0.21918 -1.7572,0.65754c-0.8786,0.21918 -1.3179,0.43836 -1.7572,0.65754c0.21965,0 0.65895,0 1.7572,-0.21918c1.09825,-0.21918 1.7572,-0.21918 1.7572,-0.21918l-0.21965,0.21918c-4.17336,1.53427 -6.58951,2.411 -7.02881,2.63018c-0.65895,0.21918 -2.41615,0.87673 -5.05196,1.53427c-0.8786,0.21918 -1.7572,0.65754 -3.07511,0.87673c-0.65895,0.21918 -1.09825,0.21918 -1.3179,0c0,0 0,0.21918 -0.21965,0.43836v0v-0.65754c0.21965,-2.19181 0.21965,-3.28772 0.21965,-3.28772c0,-1.53427 0.21965,-3.72608 0.8786,-6.57544c0,0 0.21965,-0.87673 0.4393,-2.19181c0,-0.21918 0,-0.21918 -0.21965,-0.43836c-0.21965,-0.21918 -0.21965,-0.21918 0,-0.43836c0.21965,0 0.4393,-0.21918 0.4393,-0.65754c0.4393,-2.19181 0.65895,-3.5069 0.65895,-3.72608c0,-0.43836 0.21965,-1.53427 0.65895,-3.28772c0,-0.43836 0,-0.65754 -0.21965,-0.87673c0.21965,-0.43836 0.4393,-0.65754 0.4393,-0.65754c0.21965,0 0,-0.21918 0,-0.65754c0,0 0.21965,-0.21918 0.21965,-0.65754c0,-0.43836 0.21965,-0.65754 0.21965,-0.87673c0.21965,0.21918 0.21965,0.21918 0.21965,0.21918c0,0.21918 0,0.43836 0,0.87673c0.21965,0 0.4393,0 0.4393,0c0,-0.21918 0.21965,-0.21918 0.21965,-0.43836c0,-0.21918 0,-0.21918 0,-0.43836c0,-0.21918 0,-0.43836 0,-0.43836c0,0 0.21965,0 0.21965,-0.21918c0.21965,0.21918 0.21965,0.43836 0.21965,0.65754c0,0.43836 0,0.65754 0,0.65754c0.21965,-0.21918 0.21965,-0.21918 0.21965,-0.21918c0,-0.21918 0.21965,-0.43836 0.21965,-0.65754c0.21965,-0.21918 0.21965,-0.43836 0.21965,-0.65754c0,-0.21918 0.21965,-0.43836 0.21965,-0.65754h0.21965c0.21965,0.21918 0.21965,0.65754 0.21965,1.75345c0.21965,0 0.4393,0 0.4393,-0.21918c0,-0.21918 0,-0.21918 0,-0.43836c0,-0.21918 0,-0.43836 0,-0.43836c0,0 0,-0.21918 0.21965,-0.43836c0.21965,0.21918 0.21965,0.43836 0.21965,0.65754c0,0.43836 0,0.65754 0,0.65754c1.97685,-0.21918 2.85546,-0.43836 3.07511,-0.43836c1.09825,0 2.1965,-0.21918 3.29476,-0.21918c1.7572,0 2.6358,0 3.07511,0c0,0 0,0 -0.4393,0.21918c0.4393,0 0.8786,0 0.8786,0v0c-0.65895,0 -1.3179,0.43836 -2.41615,0.65754c0.4393,0 0.65895,0 1.3179,0c0.65895,0 1.09825,0 1.3179,0c-0.21965,0.21918 -0.8786,0.43836 -1.7572,0.65754c-0.8786,0.21918 -1.53755,0.43836 -1.97685,0.65754c0,0.21918 0.65895,0 1.97685,0c1.3179,-0.21918 1.97685,-0.21918 1.97685,-0.21918c-0.21965,0 -0.65895,0.21918 -1.7572,0.65754c-0.8786,0.21918 -1.53755,0.43836 -1.7572,0.65754c0,0 0.21965,0 0.4393,0c0.21965,0 0.21965,0 0.4393,0c-0.21965,0.21918 -0.21965,0.21918 -0.21965,0.21918c-0.21965,0 -0.8786,0.43836 -1.97685,0.87673c-1.7572,0.87673 -3.51441,1.53427 -5.27161,1.97263c0,0.21918 -0.4393,0.21918 -1.09825,0.43836v0zM138.1566,312.65742l5.49126,-2.19181c-0.65895,0 -1.7572,0.21918 -2.85546,0.65754c-1.09825,0.43836 -1.97685,0.87673 -2.41615,1.31509zM142.32995,315.06842c0.21965,-0.21918 0.4393,-0.21918 0.4393,-0.21918c0,0 0.4393,0 0.8786,-0.21918c0.65895,-0.21918 1.09825,-0.43836 1.3179,-0.43836v0c-0.65895,0.21918 -1.09825,0.21918 -1.09825,0.21918c0,0 -1.53755,0.21918 -4.61266,1.09591c-0.4393,0.21918 -0.8786,0.21918 -1.53755,0.43836c-0.65895,0.21918 -1.09825,0.43836 -1.53755,0.43836c0,0 -0.21965,0 -0.4393,0h-0.21965c0,0 0,-0.21918 0,-0.43836c-0.4393,0.21918 -0.65895,0.21918 -0.65895,0.21918c-0.21965,0 -0.4393,0 -0.4393,-0.21918c0,-0.21918 0,-0.21918 0.21965,-0.43836c0,0 0.21965,-0.21918 0.65895,-0.43836c-0.4393,0 -0.65895,0 -0.65895,0c-0.21965,0 -0.4393,0 -0.4393,-0.21918c0,-0.21918 0,-0.21918 0,-0.43836l0.21965,-0.21918v-0.21918c-0.21965,-0.21918 -0.21965,-0.43836 -0.21965,-0.65754c0,-0.21918 0.21965,-0.21918 0.4393,-0.43836c0.4393,-0.21918 0.8786,-0.43836 1.3179,-0.65754c3.07511,-1.53427 6.15021,-2.411 9.00567,-3.06854c1.3179,-0.21918 3.51441,-0.65754 6.80916,-1.31509c0.21965,-0.21918 0.65895,-0.21918 1.3179,-0.21918c-0.21965,0.21918 -0.8786,0.43836 -1.53755,0.65754c-0.65895,0.21918 -1.09825,0.43836 -1.53755,0.65754c0.21965,0 0.8786,0 1.97685,-0.21918c1.09825,-0.21918 1.7572,-0.21918 1.97685,-0.21918c-0.21965,0.21918 -0.4393,0.21918 -0.4393,0.21918c-0.4393,0 -0.8786,0.21918 -1.7572,0.65754c-0.65895,0.21918 -1.3179,0.43836 -1.7572,0.65754c-0.21965,0 -0.4393,0 -0.65895,0.21918c0.21965,0 0.8786,0 1.97685,-0.21918c0.8786,-0.21918 1.7572,-0.21918 2.1965,-0.21918c0,0 -0.4393,0.21918 -1.3179,0.65754c-0.8786,0.21918 -1.3179,0.43836 -1.3179,0.43836c0,0 0.65895,0 2.1965,0c0.21965,0 0.8786,0 2.1965,-0.21918v0v0c-0.8786,0.21918 -1.97685,0.65754 -3.51441,1.09591c-1.97685,0.65754 -3.07511,0.87673 -3.51441,1.09591v0c-0.21965,0.65754 -0.4393,1.53427 -0.65895,2.84936c-0.4393,1.53427 -0.4393,2.411 -0.65895,3.06854c0,0.21918 -0.4393,2.19181 -1.3179,5.9179c0,0 0,-0.21918 0,-0.43836c0,-0.21918 0,-0.43836 0,-0.43836c-0.21965,0.21918 -0.21965,0.43836 -0.21965,0.43836c-0.21965,1.31509 -0.8786,3.5069 -1.7572,6.57544c-0.21965,0.43836 -0.4393,1.09591 -0.65895,1.97263c0,0 0,0 0,0.21918c0,-0.21918 0,-0.43836 0,-0.65754c0,-0.21918 0,-0.43836 0,-0.87673c0,-0.65754 0,-0.87673 0,-0.87673c0,-0.21918 0,-0.21918 0,-0.43836c0,-0.21918 0,-0.43836 0,-0.43836c0,-0.21918 0,-0.43836 0,-0.87673c0,-0.65754 0,-0.87673 0,-0.87673c0,-0.43836 0,-0.65754 0,-0.87673c-0.21965,0.43836 -0.21965,0.65754 -0.21965,0.65754c0,0.21918 -0.21965,0.87673 -0.4393,1.75345c-0.21965,0.65754 -0.21965,1.31509 -0.4393,1.75345c-0.21965,0.43836 -0.21965,0.65754 -0.4393,0.87673l0.21965,-1.75345c0,-0.21918 0,-0.43836 0,-0.87673c0,-0.43836 0,-0.65754 0,-0.87673c-0.21965,0.43836 -0.4393,1.09591 -0.65895,1.97263c-0.21965,0.87673 -0.4393,1.53427 -0.65895,1.97263v-1.31509c0,0 -0.21965,0.87673 -0.65895,2.411c-0.21965,0 -0.21965,0 -0.21965,-0.21918c0,-0.65754 0,-1.09591 0,-1.31509c0,-2.19181 0.21965,-3.5069 0.21965,-4.16445c0.21965,-0.87673 0.4393,-1.97263 0.65895,-3.5069c0.21965,-1.97263 0.8786,-4.82199 1.97685,-8.98644c0,-0.43836 0.21965,-0.87673 0.65895,-0.87673c0,0 0.21965,-0.21918 0.8786,-0.43836c0,0 -0.21965,0 -0.4393,0c-0.21965,0 -0.4393,0 -0.4393,0zM140.7924,316.60269c0.21965,0 0.21965,0.21918 0.21965,0.43836c0,0.21918 0,0.43836 -0.21965,1.09591c0,0.43836 -0.21965,0.87673 -0.21965,1.09591c0,0.43836 -0.21965,1.09591 -0.65895,2.19181c0,0 0,0.21918 -0.21965,0.43836c-0.21965,-1.31509 0.21965,-2.84936 0.8786,-4.60281c0,-0.21918 0.21965,-0.21918 0.4393,-0.43836zM169.78626,311.99988v0v0c0,-0.65754 -0.21965,-1.31509 -0.4393,-1.75345c-0.21965,0.21918 -0.4393,0.43836 -0.4393,0.43836c-0.21965,0 0,0.21918 0,0.43836c0.21965,0.43836 0.4393,0.65754 0.4393,0.87673c0,0 0,0 0.21965,0.21918zM163.41639,311.34233c0.65895,-0.65754 1.09825,-1.09591 1.53755,-1.31509c-0.4393,0 -0.8786,0.43836 -1.53755,0.87673c-0.4393,0.43836 -0.8786,1.09591 -1.3179,1.75345c0,0 0.4393,-0.43836 1.3179,-1.31509zM168.90765,327.56176c-0.21965,0.21918 -0.21965,0.21918 -0.4393,0.43836c-0.8786,0.87673 -1.7572,1.53427 -2.85546,2.19181c0,0 -0.65895,0.43836 -1.97685,1.09591c2.1965,-0.21918 3.95371,-1.53427 5.27161,-3.72608zM160.56094,321.86304c0.4393,-0.87673 0.65895,-1.31509 0.65895,-1.31509v0c0.21965,-0.21918 0.65895,-0.87673 0.8786,-1.31509c0.21965,-0.21918 0.21965,-0.43836 0.65895,-0.87673v0v0c-0.21965,0.21918 -0.21965,0.43836 -0.21965,0.43836c-0.21965,0.65754 -0.65895,1.31509 -0.8786,2.19181c-0.4393,1.75345 -0.4393,3.72608 0,6.13708c0.4393,0 0.65895,0 1.09825,0c0.65895,0 1.09825,-0.43836 1.53755,-0.65754c0.8786,-0.43836 1.53755,-1.09591 1.97685,-1.97263c0.8786,-1.09591 1.3179,-2.411 1.7572,-3.94527c0.21965,-0.87673 0.4393,-1.75345 0.4393,-3.06854c0.21965,-1.09591 0.21965,-2.411 0,-3.72608c-0.21965,-1.09591 -0.21965,-1.53427 -0.21965,-1.75345c0,0 0,-0.21918 0,-0.43836c-0.21965,0.21918 -0.4393,0.43836 -0.4393,0.43836c-1.53755,1.53427 -2.1965,2.19181 -2.1965,2.19181c-1.53755,1.31509 -2.85546,3.28772 -3.95371,5.69872c-0.21965,0.65754 -0.4393,1.09591 -0.4393,1.75345zM170.00591,306.73952c-0.8786,0.65754 -1.3179,0.87673 -1.3179,0.87673c0,0 -0.4393,0.21918 -1.09825,0.65754v0v0v0v0v0v0v0v0v0v0v0c0.21965,0 0.65895,-0.21918 1.3179,-0.43836c0,0 0,0 0,0.21918v0.21918c0,0 0,0.21918 -0.4393,0.43836h0.4393c-0.21965,0.21918 -0.4393,0.43836 -0.65895,0.65754c-0.21965,0.21918 -0.4393,0.43836 -0.65895,0.65754c0,0 0.4393,-0.21918 1.3179,-0.65754c0.8786,-0.21918 1.09825,-0.43836 1.3179,-0.43836c0,0 -0.21965,0.21918 -0.4393,0.43836c-0.21965,0.21918 -0.4393,0.43836 -0.4393,0.43836v0v0c0,0 0.21965,0 0.4393,-0.21918l0.4393,-0.21918c0,0 0,0 -0.21965,0.21918c-0.8786,0.87673 -1.09825,1.09591 -1.09825,1.09591c0,0 -0.21965,0.21918 -0.21965,0.43836c0.21965,0 0.65895,-0.21918 1.3179,-0.65754v0l-0.4393,0.43836c0.65895,0.87673 1.09825,1.53427 1.09825,1.53427c0.65895,1.09591 0.8786,1.53427 0.8786,1.53427c0,-0.21918 -0.21965,-0.43836 -0.21965,-0.87673c-0.21965,-0.43836 -0.21965,-0.65754 -0.21965,-0.87673c0.21965,0 0.21965,0.21918 0.4393,0.43836c0.21965,0.21918 0.65895,0.87673 0.8786,1.31509c0,0.21918 0,0.43836 0.21965,0.65754c0,0.21918 0.21965,0.43836 0.21965,0.65754c0.4393,0.65754 0.65895,1.31509 0.65895,2.19181c0,0.65754 -0.21965,1.53427 -0.21965,1.97263c-0.4393,1.75345 -0.65895,2.63018 -0.65895,2.63018c-0.8786,2.63018 -1.97685,4.82199 -3.07511,6.35626c0,0 -0.65895,0.65754 -1.53755,1.75345c-0.4393,0.65754 -0.8786,1.09591 -0.8786,1.09591c0,0.21918 -0.21965,0.43836 -0.4393,0.65754c-0.21965,0.21918 -0.4393,0.65754 -0.4393,0.65754c0,0.21918 0,0.21918 -0.21965,0.21918c0,-0.21918 0,-0.43836 0.21965,-0.65754c0,-0.43836 0.21965,-0.43836 0.21965,-0.65754v0l-0.4393,0.21918c-1.3179,0.65754 -2.6358,1.09591 -4.17336,1.09591c-1.09825,0 -2.1965,-0.43836 -3.07511,-0.87673c-1.3179,-0.65754 -1.97685,-1.75345 -2.41615,-3.28772c-0.21965,-1.09591 -0.21965,-2.411 -0.21965,-3.94527c0,0.21918 0,0 0,-0.65754c0,-0.21918 0,-0.43836 0,-0.43836c0.8786,-3.72608 1.3179,-5.69872 1.53755,-6.13708c0.8786,-2.63018 2.1965,-4.82199 3.95371,-6.79463c0.8786,-0.87673 1.53755,-1.53427 2.41615,-1.97263l0.21965,-0.21918c1.09825,-0.65754 2.41615,-1.31509 3.73406,-1.97263c0.21965,-0.21918 0.4393,-0.21918 0.8786,-0.43836c0.4393,0 0.65895,-0.21918 0.8786,-0.21918c0,0 0,0 0.21965,0v0zM177.25437,314.19169c0.21965,-0.65754 0.4393,-1.75345 0.65895,-3.28772c-0.4393,0.87673 -0.65895,1.97263 -0.65895,3.28772zM175.93647,330.19194c-0.21965,0.43836 -0.21965,0.65754 -0.21965,0.65754v0c0,0.43836 0,0.65754 -0.21965,0.65754c-0.21965,0.21918 -0.21965,0.21918 -0.21965,0.43836c0,0.43836 -0.21965,0.65754 -0.21965,0.87673c0,-0.21918 0,-0.43836 0,-0.43836c0,-0.87673 0.21965,-2.411 0.21965,-4.60281c0,0 0,-0.43836 0,-1.53427c0,-1.53427 0,-2.411 0,-2.63018c0,-0.43836 -0.21965,-0.65754 -0.4393,-0.65754c0.21965,-0.21918 0.4393,-0.21918 0.4393,-0.43836c-0.21965,0 -0.4393,-0.21918 -0.65895,-0.21918c0.21965,-0.21918 0.4393,-0.43836 0.65895,-0.65754c-0.21965,0 -0.4393,0 -0.4393,0h-0.4393l-0.21965,-0.21918c-0.21965,-0.21918 -0.21965,-0.43836 0,-0.43836c0,-0.21918 0,-0.21918 0.4393,-0.43836v0c-0.4393,-0.43836 -0.4393,-0.65754 0,-0.87673c0,0 0.21965,0 0.65895,-0.21918c-0.21965,-0.21918 -0.21965,-0.21918 -0.21965,-0.21918c-0.21965,-0.21918 -0.21965,-0.43836 0,-0.43836c0,0 0.21965,0 0.4393,-0.21918c0.21965,-0.87673 0.21965,-1.09591 0.21965,-1.31509c0.4393,-3.72608 0.8786,-5.9179 0.8786,-6.57544c0,-0.43836 0.21965,-1.09591 0.4393,-1.97263c0,-0.21918 0,-0.43836 0.21965,-0.65754c0.21965,-0.21918 0.21965,-0.21918 0.4393,-0.21918c0.21965,0 0.4393,0 0.4393,0.21918c0,0 0,0.21918 0,0.43836c0,0 0,0.21918 0,0.43836c0,0 0.21965,-0.21918 0.4393,-0.65754l0.21965,-0.65754c0.21965,-0.21918 0.21965,-0.21918 0.4393,-0.21918c0,0 0.21965,0 0.21965,0.21918c0,0 0,0.21918 0,0.65754c0.21965,-0.43836 0.4393,-0.65754 0.4393,-0.65754c0,-0.21918 0.21965,-0.43836 0.21965,-0.43836c0.21965,-0.21918 0.21965,-0.21918 0.4393,-0.21918c0.21965,0.21918 0.21965,0.21918 0.21965,0.43836c0,0.65754 0,1.09591 0,1.31509v1.53427c0.21965,-0.87673 0.4393,-1.31509 0.4393,-1.31509c0.21965,-0.87673 0.4393,-1.31509 0.4393,-1.53427c0,-0.21918 0,-0.43836 0.21965,-0.43836c0.21965,0 0.21965,0.21918 0.21965,0.43836c0,0.87673 -0.21965,1.53427 -0.21965,1.97263c0,0.87673 -0.21965,2.19181 -0.4393,3.5069c-0.21965,1.97263 -0.4393,3.06854 -0.4393,3.5069v0.21918c1.7572,0 3.73406,-0.43836 5.49126,-1.09591c0.4393,-1.31509 0.65895,-1.97263 0.65895,-1.97263c0.4393,-1.75345 0.8786,-3.5069 1.53755,-5.47954c0,-0.43836 0.21965,-0.65754 0.4393,-0.65754c0.21965,0.21918 0.21965,0.21918 0.21965,0.21918c0,0.21918 0.21965,0.21918 0.21965,0.21918h0.21965c0,0 0,0 0,0.21918v0.87673c0,-0.43836 0.21965,-0.65754 0.21965,-0.65754c0,-0.21918 0.21965,-0.43836 0.21965,-0.43836c0.21965,-0.21918 0.4393,-0.21918 0.65895,0.21918v0.21918c0.21965,0 0.21965,-0.21918 0.21965,-0.21918c0.21965,-0.43836 0.4393,-0.65754 0.4393,-0.65754c0,-0.21918 0.21965,-0.21918 0.4393,-0.21918c0.21965,0 0.21965,0.21918 0.21965,0.43836c0,0.21918 0,0.21918 0,0.43836c-0.4393,2.63018 -0.65895,3.94527 -0.65895,3.94527c-0.21965,0.65754 -0.4393,2.19181 -0.8786,4.82199c0,0 0,0.21918 0,0.43836c0.21965,0 0.4393,0 0.65895,0c0.21965,0 0.4393,0 0.65895,0c-0.21965,0 -0.4393,0.21918 -0.65895,0.21918c-0.21965,0 -0.4393,0.21918 -0.65895,0.21918c-0.8786,4.38363 -1.53755,7.01381 -1.7572,8.10971c-1.09825,3.72608 -1.97685,6.35626 -2.6358,7.89053c0,-0.21918 0,-0.43836 0,-0.43836c0,-0.21918 0.21965,-0.43836 0.21965,-1.09591c0,-0.43836 0.21965,-0.87673 0.21965,-1.09591v-0.65754c-0.21965,0.21918 -0.4393,0.87673 -0.65895,1.75345c-0.21965,0.65754 -0.4393,1.09591 -0.65895,1.53427c-0.21965,-0.21918 0,-0.65754 0,-1.31509c0,-0.65754 0,-1.09591 0,-1.31509c-0.21965,1.09591 -0.4393,1.97263 -0.65895,2.63018c-0.21965,0 -0.21965,-0.21918 -0.21965,-0.21918v-0.21918v-0.21918c0,0 0,-0.21918 0,-0.65754c0,-0.21918 0,-0.43836 0,-0.43836c0,-0.21918 0,-0.43836 0,-0.65754c0,0.21918 -0.21965,0.65754 -0.4393,1.31509c-0.21965,0.43836 -0.21965,0.87673 -0.4393,1.31509c0,-0.21918 0,-0.43836 0,-0.87673c0,-0.43836 0,-0.65754 0,-0.87673c-0.21965,0.21918 -0.21965,0.65754 -0.4393,1.31509c-0.21965,0.65754 -0.21965,1.09591 -0.4393,1.31509c0,-0.43836 0,-1.09591 0,-1.75345c0,-0.43836 0.21965,-1.09591 0.21965,-2.19181c0,-0.87673 0.21965,-1.75345 0.21965,-2.19181c0.21965,-1.53427 0.4393,-3.28772 0.8786,-5.47954c0.21965,-1.09591 0.21965,-1.53427 0.21965,-1.53427c0,-0.21918 0.21965,-0.43836 0.65895,-0.65754c0,0 0.4393,-0.21918 0.8786,-0.43836c0,0 0.21965,0 0.21965,-0.21918c0,0 0,0 -0.21965,0c-0.21965,0 -0.21965,0 -0.4393,0c0.21965,-0.21918 0.4393,-0.43836 0.65895,-0.43836v0c-0.21965,0 -0.21965,0 -0.21965,0c0,0 -0.21965,0 -0.4393,0c0,0 0.21965,-0.21918 0.65895,-0.43836c0.4393,-0.21918 0.65895,-0.43836 0.65895,-0.43836h-0.21965c-2.41615,0.87673 -3.95371,1.31509 -4.39301,1.53427c0,0 -0.65895,0.21918 -1.97685,0.65754c0,0 -0.21965,0 -0.65895,0.21918c-0.21965,1.09591 -1.09825,5.04117 -2.6358,12.27416l-0.21965,0.21918c0,-0.21918 0.21965,-1.31509 0.21965,-3.06854v0v0l-0.4393,1.31509c0,0 0,-0.65754 0,-1.97263v-1.75345c-0.4393,1.09591 -0.8786,2.63018 -1.3179,4.82199v0v0c0.21965,-1.31509 0.21965,-1.97263 0.21965,-1.97263v-1.97263v0zM202.07487,319.23286c-0.21965,-0.21918 -0.4393,-0.43836 -0.8786,-0.65754c-0.21965,0.21918 -0.21965,0.43836 0,0.43836c0.21965,0.21918 0.4393,0.21918 0.8786,0.21918zM200.97661,329.97276c0,0 -0.65895,0.21918 -1.97685,0.43836c0,0.21918 0,0.43836 0,0.43836c1.53755,-0.21918 2.85546,-0.87673 4.17336,-1.53427c-0.21965,0 -0.4393,0 -0.8786,0.21918c-0.4393,0.21918 -0.65895,0.43836 -0.8786,0.43836zM195.92465,331.06866c0,0 0,0 0.21965,0h0.21965c0,-0.21918 0,-0.21918 0,-0.21918c0,-1.31509 0.21965,-2.63018 0.21965,-3.5069c0,-0.43836 0,-0.87673 0,-1.31509v0.21918c0,0.87673 -0.21965,2.411 -0.65895,4.82199zM200.31766,323.83568c-0.21965,0.65754 -0.4393,2.63018 -1.09825,5.9179c1.53755,0 3.07511,-0.65754 4.39301,-1.75345c0.8786,-0.43836 0.8786,-1.09591 0.4393,-1.53427c-0.21965,-0.21918 -0.65895,-0.87673 -1.7572,-1.75345c0,-0.21918 -0.21965,-0.21918 -0.21965,-0.21918c-0.21965,0 -0.8786,-0.21918 -1.7572,-0.65754zM201.63557,310.46561c0,-0.65754 0.21965,-1.09591 0.21965,-1.53427c0.21965,0.21918 0.21965,0.43836 0.21965,0.87673c0.21965,1.97263 0.21965,3.28772 0.21965,3.72608c0,1.31509 -0.21965,2.411 -0.21965,3.72608c0,0.43836 0.21965,0.65754 0.4393,0.87673c1.53755,0.65754 2.85546,1.53427 3.95371,2.411c0.21965,0.21918 0.4393,0.43836 0.8786,0.65754c0.4393,0.21918 0.65895,0.43836 0.8786,0.65754c0.8786,0.65754 1.7572,1.31509 2.1965,1.75345c0.4393,0.21918 0.65895,0.65754 1.09825,1.09591c0.21965,0.43836 0.4393,1.09591 0.4393,1.75345c0,1.53427 -0.8786,2.84936 -2.1965,4.16445c-0.8786,0.87673 -1.97685,1.75345 -3.51441,2.19181c-0.8786,0.21918 -2.1965,0.65754 -4.17336,0.87673c-0.4393,0.21918 -1.53755,0.21918 -3.29476,0.21918c-1.7572,0 -3.29476,0 -5.05196,-0.21918c0,0 -0.21965,-0.21918 -0.8786,-0.21918c0,-0.21918 0,-0.43836 0.21965,-0.43836c0.4393,-0.21918 0.8786,-0.21918 1.53755,-0.21918c0.4393,0 0.4393,-0.21918 0.65895,-0.21918c-0.4393,-0.21918 -0.65895,-0.21918 -0.65895,-0.21918c-0.65895,-0.21918 -1.09825,-0.21918 -0.8786,-0.21918c0,0 -0.21965,0 -0.4393,-0.21918c0.4393,0 1.3179,-0.21918 2.1965,-0.21918c-0.21965,0 -0.4393,-0.21918 -0.8786,-0.21918c-0.4393,0 -0.65895,-0.21918 -0.8786,-0.21918c0.4393,0 1.09825,-0.21918 1.7572,-0.21918c0,-1.53427 0.21965,-4.82199 0.65895,-9.86317c-0.21965,-0.21918 -0.65895,-0.43836 -1.09825,-0.65754c0,0 0.21965,0 0.65895,0h0.4393c0.21965,-1.75345 0.4393,-2.84936 0.4393,-2.84936c0.21965,-1.53427 0.4393,-2.411 0.4393,-2.84936c0,-0.65754 0.21965,-1.53427 0.4393,-2.63018c0,-0.21918 0,-0.65754 0.21965,-1.31509c0,-0.65754 0.21965,-1.09591 0.21965,-1.31509c0.21965,-1.31509 0.65895,-2.19181 0.8786,-2.84936c0,0.21918 0,0.65754 0,1.09591c0,0.43836 0,0.87673 0,1.09591c0.21965,-0.21918 0.21965,-0.65754 0.4393,-1.31509c0.21965,-0.43836 0.21965,-0.87673 0.4393,-1.09591c0,3.06854 0,4.82199 0,4.82199c0,-0.21918 0.21965,-0.65754 0.21965,-1.09591c0,-0.21918 0.21965,-0.65754 0.21965,-1.09591c0.21965,-0.65754 0.21965,-1.09591 0.21965,-1.09591c0,-0.65754 0.21965,-1.09591 0.21965,-1.09591c0,0.43836 0,1.09591 0,1.75345c0,0.87673 0,1.31509 0,1.75345zM213.93599,309.3697v0v0l-0.21965,0.43836c-0.8786,3.72608 -1.3179,6.13708 -1.53755,7.89053c-0.4393,3.72608 -0.8786,8.10971 -1.3179,12.71252c0,0.43836 -0.21965,1.53427 -0.21965,2.84936c0,0.21918 0,0.21918 0,0.43836c0.21965,0.21918 0.21965,0.21918 0.4393,0.21918l0.21965,-0.21918c0.21965,0 0.21965,-0.21918 0.21965,-0.43836c0,0 0.21965,-0.43836 0.21965,-0.87673v0c0.21965,0.43836 0.21965,0.65754 0.21965,0.87673l0.21965,-0.21918c0.21965,-0.21918 0.21965,-0.43836 0.21965,-0.65754c0.21965,-0.65754 0.21965,-1.09591 0.4393,-1.97263c0.21965,-1.09591 0.4393,-1.75345 0.4393,-1.97263c0,0 0.21965,-0.21918 0.21965,-0.65754c0,0.21918 0,0.21918 0,0.43836c0,0.43836 -0.21965,1.09591 -0.21965,1.75345c-0.21965,0.87673 -0.21965,1.53427 -0.21965,1.75345c0,0.21918 0,0.43836 0,0.43836h0.21965h0.21965c0.21965,-0.21918 0.21965,-0.21918 0.21965,-0.43836c0,-0.21918 0.21965,-0.65754 0.21965,-1.09591c0,-0.43836 0.21965,-0.87673 0.21965,-1.09591c-0.21965,0 0,-0.21918 0,-0.43836c0,0.21918 0,0.43836 0,0.87673v0.87673c0.21965,0.43836 0.21965,0.87673 0.21965,0.87673c0.21965,-0.21918 0.4393,-0.43836 0.4393,-0.65754c0,-0.21918 0.21965,-0.65754 0.21965,-0.65754c0,0.43836 0,0.65754 0,0.65754v0.43836c0,0.21918 0,0.21918 0.21965,0.21918c0,0 0.21965,0 0.21965,-0.21918v-0.43836c0,-0.87673 0,-1.31509 0,-1.31509c0.4393,-3.5069 0.8786,-6.13708 1.09825,-8.3289c0,-0.21918 0.21965,-1.09591 0.4393,-2.84936c0.21965,-1.09591 0.4393,-2.19181 0.4393,-2.84936c0,-0.65754 0.21965,-3.28772 0.65895,-8.3289c0,0 0,0 0,-0.21918c0,0.21918 -0.21965,0.43836 -0.21965,0.65754c0,0 0,0 0,0.21918v0.21918c0,0.43836 -0.21965,0.65754 -0.21965,0.65754c0,-0.87673 0.21965,-1.53427 0.21965,-1.97263c0,0.21918 -0.21965,0.43836 -0.21965,0.43836v-0.21918c0,-0.21918 0,-0.21918 0,-0.21918c-0.21965,0.21918 -0.4393,0.65754 -0.65895,1.31509c-0.21965,0.21918 -0.21965,0.65754 -0.4393,1.31509c-0.4393,0.87673 -0.4393,1.31509 -0.4393,1.31509c-0.21965,0.87673 -0.4393,1.31509 -0.4393,1.31509c0,0 0.21965,-0.65754 0.21965,-1.75345c0,-0.21918 0,-0.43836 0,-0.87673c0.21965,-0.43836 0.21965,-0.65754 0.21965,-0.87673c0,-0.87673 0,-1.31509 0,-1.75345c-0.21965,0.87673 -0.4393,2.19181 -0.8786,3.94527c0,-0.65754 0,-1.31509 0,-1.97263c0,0 0,-0.43836 0,-0.65754c0,-0.21918 0,-0.65754 0,-0.65754c0,0 0,0 0,-0.21918v0v0c-0.4393,1.53427 -0.65895,2.63018 -0.8786,3.28772v0v0v-0.87673zM237.87788,317.47941c-0.21965,-0.21918 -0.4393,-0.21918 -0.8786,-0.43836c-0.21965,0.21918 -0.21965,0.43836 0,0.43836c0.21965,0.21918 0.4393,0.21918 0.8786,0zM232.82592,326.46585c-0.21965,0.87673 -0.4393,2.63018 -0.65895,5.04117c0,-0.21918 0.21965,-0.21918 0.21965,-0.21918c0.21965,0 0.21965,0 0.21965,0c0,-0.21918 0,-0.21918 0,-0.21918c0,-1.31509 0,-2.63018 0,-3.5069c0,-0.43836 0,-1.09591 0,-1.31509v0.21918zM233.92418,306.9587c2.41615,-0.43836 4.39301,-0.65754 5.71091,-0.65754h1.3179c1.53755,0 3.29476,0.21918 5.27161,0.43836v0c-0.21965,0 -0.65895,0.21918 -1.09825,0.21918v0c1.09825,0.21918 1.53755,0.21918 1.7572,0.21918v0c0,0 -0.65895,0.21918 -1.97685,0.43836v0c0.8786,0.21918 1.3179,0.43836 1.7572,0.43836v0.21918l-1.3179,0.21918v0c0.21965,0 0.4393,0 0.8786,0.21918v0c-0.8786,0.21918 -1.3179,0.43836 -1.3179,0.43836v0h0.21965h0.4393c0.21965,0 0.21965,0 0.21965,0c-3.95371,1.09591 -6.80916,1.53427 -9.00567,1.53427c0.21965,1.09591 0.21965,2.63018 0.21965,4.16445c0,0.65754 0,0.87673 0,1.09591c0,0.43836 0.21965,0.65754 0.8786,0.65754c0.65895,0 3.07511,0.65754 7.02881,1.97263c1.53755,0.65754 2.1965,1.31509 2.1965,2.411v0c0,2.411 -1.53755,4.82199 -4.61266,7.67135c-1.97685,1.75345 -4.61266,3.06854 -7.24846,4.16445c-3.73406,1.53427 -6.15021,2.19181 -6.80916,2.19181v0c0,-0.43836 0.65895,-0.87673 1.97685,-1.31509c0,-0.21918 0.21965,-0.21918 0.21965,-0.21918v0v0c-0.4393,0 -0.8786,0 -1.53755,0.21918h-0.21965v0c0,0 0.65895,-0.21918 1.97685,-0.87673h-0.21965c-0.65895,0.21918 -1.09825,0.21918 -1.3179,0.21918v0l1.53755,-0.87673c0.21965,-6.13708 0.4393,-9.4248 0.4393,-9.86317c-0.65895,-0.21918 -0.8786,-0.21918 -1.09825,-0.21918v-0.21918c0.65895,-0.21918 1.09825,-0.43836 1.09825,-0.65754c0.21965,-3.72608 0.65895,-7.01381 1.09825,-9.64398c0,0 0,-0.43836 0.21965,-1.09591c-0.21965,0 -0.21965,0 -0.21965,0v0l0.4393,-0.21918v0c-0.65895,0 -1.09825,0 -1.09825,-0.21918l0.8786,-0.65754v0c-0.65895,0 -1.09825,-0.21918 -1.09825,-0.43836c0,-0.21918 -0.21965,-0.43836 -0.4393,-0.65754v-0.21918c0.21965,-0.21918 0.4393,-0.43836 0.65895,-0.43836v0c-0.4393,0 -0.65895,-0.21918 -0.65895,-0.43836c0,-0.43836 0.8786,-0.65754 2.85546,-0.87673zM234.36348,310.90397v0v0.21918v0zM237.65823,323.17813h-1.7572l-0.8786,6.13708c1.09825,-0.43836 2.41615,-1.31509 3.95371,-3.06854c0.65895,-0.65754 0.8786,-1.09591 0.8786,-1.53427c0,-0.43836 -0.4393,-0.65754 -1.3179,-1.09591c-0.65895,-0.21918 -0.8786,-0.43836 -1.09825,-0.43836zM234.80278,330.19194c1.3179,-0.65754 2.6358,-1.53427 3.95371,-2.84936c-1.7572,1.09591 -2.6358,1.75345 -2.6358,1.75345c-0.8786,0.43836 -1.3179,0.65754 -1.3179,0.87673zM254.79097,319.45205c-0.4393,0.43836 -0.8786,1.09591 -0.8786,1.97263c0.4393,-0.43836 0.8786,-1.09591 0.8786,-1.97263zM253.91236,319.89041c-0.8786,1.75345 -1.3179,3.06854 -1.3179,3.5069c1.09825,-3.06854 2.1965,-5.26035 2.6358,-6.79463c-0.21965,0.43836 -0.8786,1.53427 -1.53755,3.28772zM260.28223,308.27379c0.4393,-0.87673 0.65895,-1.31509 0.65895,-1.31509v0c-0.21965,0.87673 -0.21965,1.31509 -0.21965,1.31509c0,0 0.21965,0.43836 0.4393,1.31509c0.21965,0.21918 0.21965,0.43836 0.21965,0.43836c1.3179,4.16445 1.97685,6.35626 2.1965,6.79463c1.53755,4.60281 2.41615,7.67135 2.6358,9.20562c0,0.43836 0,0.87673 0.21965,1.31509c0,0.65754 0.21965,1.09591 0.21965,1.31509c0.21965,0.21918 0,0.21918 0,0.43836c0,-0.21918 -0.21965,-0.65754 -0.65895,-1.31509c-0.21965,-0.43836 -0.4393,-0.87673 -0.65895,-1.31509c0,0.43836 0.21965,1.09591 0.4393,2.19181c0.21965,1.31509 0.4393,2.19181 0.4393,2.19181c-0.21965,-0.21918 -0.4393,-0.65754 -0.65895,-1.09591c-0.21965,-0.43836 -0.4393,-0.87673 -0.65895,-1.09591c0,0 0,0.21918 0,0.43836c0.21965,0.43836 0.4393,1.09591 0.65895,1.97263c0.4393,0.87673 0.65895,1.53427 0.65895,1.97263c0,0 0.21965,0.21918 0.21965,0.65754c-0.21965,-0.21918 -0.4393,-0.43836 -0.65895,-0.87673c0,-0.21918 -0.21965,-0.43836 -0.4393,-0.87673c-0.21965,-0.21918 -0.21965,-0.43836 -0.4393,-0.87673c0,0 -0.21965,-0.21918 -0.21965,-0.43836c0,-0.21918 -0.21965,-0.43836 -0.21965,-0.43836c-0.21965,-0.43836 -0.4393,-0.87673 -0.4393,-0.87673c-0.21965,-0.43836 -0.4393,-0.65754 -0.4393,-0.65754c0,0.43836 0,0.87673 0.21965,1.75345c0.21965,1.09591 0.21965,1.53427 0.21965,1.75345c-0.21965,-0.21918 -0.4393,-0.43836 -0.4393,-0.65754c-0.21965,-0.43836 -0.65895,-1.31509 -1.09825,-2.63018c-0.4393,-1.31509 -0.8786,-2.19181 -1.09825,-2.84936c0,0 0,-0.21918 -0.21965,-0.43836c0,0 0.65895,2.411 1.7572,7.45217c-0.21965,-0.43836 -0.4393,-0.65754 -0.4393,-0.87673c-0.4393,-0.65754 -0.8786,-1.75345 -1.3179,-3.06854c-0.65895,-1.75345 -1.09825,-2.63018 -1.3179,-3.06854c-0.4393,-1.31509 -1.09825,-3.06854 -1.7572,-5.26035c-0.21965,-0.43836 -0.21965,-0.65754 0,-1.09591c0,-0.65754 0.4393,-1.31509 0.65895,-2.19181c0,0 0.21965,-0.43836 0.4393,-1.31509c-0.4393,0.21918 -0.8786,1.31509 -1.53755,3.06854v0c0.21965,-0.21918 0.21965,-0.65754 0.4393,-1.31509c0.21965,-0.65754 0.4393,-1.09591 0.4393,-1.31509c-0.4393,0.87673 -0.65895,1.31509 -0.8786,1.75345c-0.21965,0.21918 -0.4393,0.87673 -0.65895,1.53427c-0.21965,0.65754 -0.4393,1.09591 -0.65895,1.53427c-0.21965,0.87673 -0.8786,1.97263 -1.3179,3.28772c-0.65895,1.31509 -1.3179,3.06854 -2.41615,5.47954c0,0 -0.21965,0.21918 -0.21965,0.43836c-0.21965,0.21918 -0.21965,0.21918 -0.4393,0.21918c0,0 0,0 -0.21965,0l-0.21965,0.21918c-0.21965,0.21918 -0.4393,0.21918 -0.4393,0.21918c-0.21965,0 -0.21965,0 -0.21965,-0.21918c0,-0.21918 0,-0.43836 0,-0.43836c0,-0.21918 0,-0.43836 0.21965,-1.09591c0,0 0.21965,-0.43836 0.4393,-1.31509c-0.21965,0.21918 -0.21965,0.43836 -0.4393,0.87673c-0.21965,0.21918 -0.21965,0.43836 -0.4393,1.09591c-0.21965,0.43836 -0.4393,0.87673 -0.4393,1.09591c0,0.21918 -0.21965,0.43836 -0.21965,0.65754c0,0.21918 -0.21965,0.21918 -0.21965,0.21918c0,0 -0.21965,0 -0.21965,-0.21918c0,0 0,0 0,-0.21918c0,0.43836 -0.21965,0.65754 -0.21965,0.65754c0,0.21918 0,0.21918 -0.21965,0.21918c-0.21965,0 -0.21965,0 -0.21965,-0.21918c0,-0.21918 0,-0.43836 0,-0.43836c0,-0.43836 0.21965,-0.87673 0.4393,-1.75345c0,0 0.21965,-0.21918 0.21965,-0.65754c-0.21965,0.43836 -0.65895,1.31509 -1.09825,2.411c0,0.21918 -0.21965,0.21918 -0.21965,0.43836c-0.21965,0.21918 -0.21965,0.21918 -0.4393,0.21918c-0.21965,0 -0.21965,-0.21918 -0.21965,-0.43836c0,-0.21918 0,-0.21918 0,-0.43836c0.4393,-1.53427 0.8786,-2.63018 0.8786,-2.84936c0.65895,-1.97263 1.3179,-3.5069 1.7572,-4.82199c0.65895,-2.19181 1.53755,-4.16445 2.41615,-6.57544c0.4393,-1.31509 1.53755,-3.28772 2.85546,-6.13708c0.21965,-0.21918 0.21965,-0.65754 0.21965,-1.09591c0,-0.43836 -0.21965,-1.53427 -0.4393,-2.84936c0,-0.21918 0,-0.43836 0,-0.65754c0,-0.21918 0,-0.21918 0.21965,-0.21918l0.21965,0.21918c0,0 0.21965,0.21918 0.21965,0.43836c0.4393,1.31509 0.65895,1.97263 0.65895,1.97263c0,0 0,0 0.21965,0.21918c0.21965,-0.43836 0.21965,-0.65754 0.21965,-0.65754v-0.21918v-0.21918c0,-0.21918 0.21965,-0.43836 0.4393,-0.43836c0,0 0.21965,0 0.4393,0c0,0 0,0.21918 0,0.43836c-0.21965,0.21918 0,0.43836 0,0.43836c0.21965,-0.21918 0.21965,-0.43836 0.21965,-0.43836c0.21965,0 0.21965,-0.21918 0.4393,-0.43836c0.21965,-0.21918 0.4393,-0.43836 0.4393,-0.43836c0.21965,0 0.21965,0 0.21965,0v0c0,-0.21918 0.21965,-0.43836 0.4393,-0.65754c0,0 0,0.21918 0,0.43836c0,0.21918 0,0.43836 0,0.43836c0,0.21918 0.21965,0.43836 0.4393,0.65754c0,0 0,-0.21918 0.21965,-0.43836c0,-0.21918 0.21965,-0.43836 0.21965,-0.43836c0,0.21918 0,0.43836 0,0.65754c0,0.43836 -0.21965,0.65754 -0.21965,0.87673c0,0.43836 0,0.65754 0.21965,1.09591c0.21965,-0.21918 0.21965,-0.43836 0.21965,-0.87673c0,-0.43836 0,-0.65754 0,-0.87673c0.21965,0 0.4393,0.21918 0.4393,0.21918zM263.57698,311.99988l-0.21965,-0.21918c-0.8786,-2.411 -1.3179,-4.16445 -1.53755,-5.47954c-0.21965,-0.21918 -0.21965,-0.65754 -0.21965,-0.87673c0,-0.21918 0,-0.43836 0.21965,-0.43836c0.21965,0 0.4393,0.21918 0.4393,0.43836c0.21965,1.09591 0.4393,1.75345 0.4393,2.19181c0,0.43836 0.21965,1.75345 0.65895,3.72608c0,0 0.21965,0.43836 0.21965,0.87673v0v0zM277.63461,315.72596c-0.21965,0.43836 -0.65895,1.53427 -1.3179,3.28772c-0.65895,1.97263 -1.09825,3.06854 -1.09825,3.28772c1.3179,-0.43836 1.97685,-0.65754 1.97685,-0.65754c0.21965,0 0.65895,-0.21918 1.97685,-0.65754c-0.4393,-1.97263 -0.8786,-3.72608 -1.3179,-5.26035zM283.34552,320.32877c0.4393,-0.21918 0.65895,-0.21918 0.65895,-0.21918c0,0 0.4393,0 1.3179,-0.21918c-0.21965,0 -0.4393,0.21918 -0.8786,0.43836c-0.4393,0.21918 -0.65895,0.43836 -0.8786,0.43836c0.21965,1.09591 1.09825,4.16445 2.1965,9.86317c-0.21965,-0.21918 -0.4393,-0.65754 -0.8786,-1.75345c-0.4393,-1.09591 -0.8786,-1.53427 -0.8786,-1.75345c0,0.21918 0.21965,0.87673 0.4393,2.19181c0.21965,1.31509 0.4393,1.97263 0.4393,2.19181c0,0 -0.21965,0 -0.21965,-0.21918c0,-0.21918 -0.21965,-0.43836 -0.21965,-0.43836c0,0.65754 0,1.09591 0,1.31509c-0.21965,-0.21918 -0.4393,-0.65754 -0.65895,-1.31509c-0.21965,-0.65754 -0.4393,-1.09591 -0.65895,-1.31509c0,0.21918 0.21965,0.43836 0.21965,0.87673c0.21965,0.43836 0.21965,0.65754 0.21965,0.87673v0c-0.21965,-0.21918 -0.21965,-0.21918 -0.21965,-0.21918c0,0 -0.21965,-0.43836 -0.65895,-1.31509c-0.21965,-0.43836 -0.21965,-0.43836 -0.4393,-0.65754l1.09825,4.16445c-0.4393,-0.87673 -1.53755,-3.5069 -3.29476,-7.89053c0.21965,0 0.4393,-0.21918 0.8786,-0.43836c0,0 -0.21965,0 -0.4393,0c-0.21965,0 -0.21965,0 -0.4393,0c0.21965,0 0.4393,-0.21918 0.8786,-0.43836c0.4393,-0.21918 0.65895,-0.21918 0.8786,-0.43836c-0.21965,0.21918 -0.4393,0.21918 -0.4393,0.21918c-1.09825,0.21918 -2.1965,0.65754 -3.07511,1.09591c-0.8786,0.21918 -2.6358,1.09591 -4.83231,1.97263c-0.4393,0.21918 -0.65895,0.43836 -0.65895,0.65754c-0.21965,0.21918 -0.65895,1.31509 -1.3179,2.84936c0,0.43836 -0.21965,0.43836 -0.21965,0.65754c0,-0.21918 0,-0.43836 0,-0.65754c-0.21965,0.43836 -0.4393,0.87673 -0.65895,1.31509c-0.21965,0.65754 -0.4393,1.09591 -0.65895,1.31509c0,-0.21918 0,-0.65754 0.21965,-1.09591c0.21965,-0.43836 0.21965,-0.87673 0.21965,-1.09591c-0.21965,0.21918 -0.21965,0.43836 -0.4393,0.65754c-0.21965,0.43836 -0.4393,0.65754 -0.4393,0.65754c0,-0.21918 0,-0.43836 0.21965,-0.87673c0.21965,-0.43836 0.21965,-0.65754 0.21965,-0.87673c0,0.21918 -0.21965,0.43836 -0.4393,0.87673c-0.21965,0.21918 -0.21965,0.43836 -0.4393,0.65754c0,-0.43836 0.21965,-0.87673 0.21965,-1.09591c-0.21965,0.21918 -0.4393,0.87673 -0.8786,1.53427c-0.4393,0.65754 -0.65895,1.31509 -0.8786,1.53427c0,-0.21918 0,-0.43836 0,-0.43836c0.4393,-1.75345 0.65895,-2.63018 0.65895,-2.411c0.21965,-0.43836 0.21965,-0.65754 0.21965,-0.87673c-0.21965,0.21918 -0.21965,0.65754 -0.4393,1.09591c0,0.43836 -0.21965,0.65754 -0.4393,0.87673h-0.21965c0,-0.21918 0,-0.43836 0,-0.65754c0.4393,-0.87673 0.4393,-1.53427 0.65895,-1.97263c0,-0.21918 0.4393,-1.53427 1.3179,-3.94527c0,0 0,0 0.21965,-0.43836c-0.4393,0 -0.65895,0 -0.65895,0c-0.21965,0 -0.21965,-0.21918 -0.21965,-0.21918c-0.21965,0 0,-0.21918 0,-0.21918c0.21965,0 0.4393,-0.21918 0.65895,-0.21918c0.21965,0 0.4393,-0.21918 0.65895,-0.65754c0.21965,-0.43836 0.4393,-1.53427 1.09825,-3.06854c0.65895,-2.19181 1.53755,-3.94527 2.1965,-5.47954c0,-0.21918 0.65895,-1.97263 2.1965,-5.26035c0.21965,-0.43836 0.21965,-0.65754 0.4393,-0.87673c0,0.43836 0,0.87673 -0.21965,1.31509v0c0.21965,-0.65754 0.4393,-0.87673 0.4393,-0.87673c0,-0.21918 0,-0.43836 0,-0.65754c0,-0.65754 -0.21965,-1.09591 -0.21965,-1.75345c0.21965,0.21918 0.21965,0.43836 0.4393,0.87673c0.21965,0.43836 0.4393,0.65754 0.4393,0.87673c0.21965,-0.21918 0.21965,-0.21918 0.21965,-0.43836c0,-0.43836 -0.21965,-0.87673 -0.21965,-1.09591c0,-0.21918 0,-0.21918 0,-0.43836c0.21965,0.43836 0.4393,0.65754 0.4393,0.65754c0,0 0.21965,-0.21918 0.21965,-0.43836c0.21965,0.21918 0.21965,0.21918 0.21965,0.21918c0,0.43836 0.21965,0.65754 0.21965,0.65754c0,-0.21918 0,-0.21918 0,-0.21918v-0.21918v-0.21918c0,-0.21918 0,-0.43836 0.21965,-0.43836c0.21965,0 0.4393,0 0.4393,0.21918v0.21918v0.21918c0.21965,0 0.21965,0.21918 0.21965,0.43836c0.21965,0.21918 0.21965,0.43836 0.21965,0.43836c0,0 0.21965,0 0.21965,0.21918c0.21965,-0.21918 0.21965,-0.43836 0.4393,-0.65754c0.21965,-0.43836 0.4393,-0.65754 0.4393,-0.65754c0.4393,-0.65754 0.65895,-1.09591 0.8786,-1.31509v0.21918c-0.4393,1.31509 -0.8786,2.411 -1.09825,3.06854c0,0.43836 0,0.65754 0,0.87673c0,0 0.21965,0.21918 0.21965,0.43836c0.21965,0.21918 0.21965,0.21918 0.21965,0.43836c0,0 0.21965,0.21918 0.4393,0.65754c0,-0.21918 -0.21965,-0.43836 -0.21965,-0.87673c0,-0.43836 0,-0.65754 0,-0.87673c0,0.21918 0.21965,0.43836 0.21965,0.87673c0.21965,0.43836 0.21965,0.87673 0.21965,0.87673c0,-0.21918 0.21965,0.43836 0.65895,1.53427c0.21965,0.65754 0.4393,1.09591 0.65895,1.53427c0,0 0,0.43836 0.21965,0.65754c0,0.21918 0.21965,0.43836 0.21965,0.65754c0.4393,0.65754 0.4393,1.09591 0.65895,1.53427c0,0.21918 0.21965,0.65754 0.4393,1.75345zM272.14335,316.38351c-0.21965,1.53427 -0.8786,3.5069 -1.97685,6.13708c0,0 0,0 -0.21965,0.21918c-0.21965,0 -0.21965,-0.21918 -0.21965,-0.43836c0.21965,-0.21918 0.21965,-0.43836 0.21965,-0.65754c0.4393,-1.31509 0.8786,-2.411 1.53755,-3.5069c0.21965,0 0.4393,-0.65754 1.09825,-1.75345zM272.58265,314.84924c0,0.21918 0,0.43836 0,0.43836c-0.65895,1.53427 -1.3179,3.28772 -1.97685,5.04117c0,0 -0.21965,0.21918 -0.21965,0.43836c-0.21965,0.21918 -0.21965,0.43836 -0.21965,0.43836c-0.21965,0 -0.21965,0.21918 -0.21965,0.21918h-0.21965c-0.21965,0 -0.21965,-0.21918 -0.21965,-0.21918c0,-0.21918 0,-0.43836 0,-0.65754c0.4393,-1.09591 0.8786,-2.411 1.53755,-3.5069c0.21965,-0.21918 0.4393,-0.87673 1.3179,-2.411v0zM291.47258,306.30116c2.85546,-0.65754 5.49126,-0.87673 7.90741,-0.87673h0.65895c2.1965,0 3.95371,0 5.05196,0.21918v0l-1.09825,0.21918v0.21918c0.21965,0 0.8786,0 1.7572,0v0c-1.53755,0.21918 -2.41615,0.43836 -2.41615,0.43836v0c0.65895,0 1.3179,0.21918 1.97685,0.21918v0c-1.09825,0.21918 -1.53755,0.43836 -1.53755,0.43836l0.8786,0.21918v0c0,0.21918 -0.65895,0.43836 -1.7572,0.65754v0h1.09825v0c0,0.21918 -1.09825,0.43836 -3.07511,0.87673c-3.73406,0.65754 -6.36986,1.09591 -7.46811,1.09591v1.75345c-0.4393,8.3289 -0.8786,13.58925 -1.09825,15.78106v0v0c0.21965,-3.5069 0.21965,-5.26035 0.21965,-5.69872v-1.09591v0c-0.65895,5.69872 -1.09825,9.20562 -1.3179,10.52071c-0.21965,0 -0.4393,0.21918 -0.65895,0.87673c-0.21965,0 -0.4393,0 -0.4393,0c-0.65895,0 -0.8786,0.21918 -0.8786,0.43836l-0.21965,0.21918h-0.21965c-0.21965,0 -0.4393,-0.43836 -0.4393,-1.53427v0c-0.21965,0.87673 -0.21965,1.31509 -0.21965,1.53427v0c-0.21965,0 -0.21965,-0.43836 -0.4393,-1.75345v0c0,0.87673 -0.4393,1.31509 -0.65895,1.31509v0c-0.21965,0 -0.21965,-0.21918 -0.21965,-0.43836c0,-1.97263 0.65895,-7.67135 1.53755,-17.09615c0.21965,-1.31509 0.4393,-2.84936 0.8786,-4.38363v-0.21918v0c0.21965,0 0.21965,0 0.21965,-0.21918h-0.4393c-0.4393,0 -0.65895,-0.21918 -0.65895,-0.21918c0,-0.21918 0.4393,-0.43836 1.09825,-0.65754v0h-0.21965h-0.65895c-0.21965,0 -0.4393,-0.21918 -0.4393,-0.65754c0,0 -0.21965,0 -0.21965,-0.21918v-0.21918c0,0 0.21965,-0.21918 0.8786,-0.43836v0c-0.4393,0 -0.65895,0 -0.65895,-0.21918v-0.21918c0,-0.21918 1.3179,-0.65754 3.73406,-0.87673zM288.83678,327.34258v0c-0.21965,0.65754 -0.21965,1.09591 -0.21965,1.09591v0v0l0.21965,-1.31509v0zM290.81363,308.93134c0,0 0,-0.21918 -0.21965,-0.43836c0,0.43836 0,0.65754 0,1.09591v0c0.21965,-0.21918 0.21965,-0.21918 0.21965,-0.21918c0.21965,-0.21918 0.21965,-0.43836 0.21965,-0.43836zM291.47258,309.15052c0,0.21918 0,0.43836 0,0.43836c0,0 0,0.21918 0.21965,0.21918c0,-0.21918 0,-0.43836 0,-0.43836c0,0 0,0 -0.21965,-0.21918z"/></g></g></g></svg>